<?xml version="1.0" encoding="UTF-8"?>
<svg id="_레이어_2" data-name="레이어 2" xmlns="http://www.w3.org/2000/svg" viewBox="0 0 143.9 75.38">
  <defs>
    <style>
      .cls-1 {
        fill: none;
        stroke: #f9f9f9;
        stroke-linecap: round;
        stroke-linejoin: round;
        stroke-width: .25px;
      }

      .cls-2 {
        fill: #a3a3a3;
      }
    </style>
  </defs>
  <g id="South_Korea" data-name="South Korea">
    <g id="Gyeonggi-do">
      <path class="cls-2" d="M48.1,30.34l-.35.06-.05.49.24.7.15.31.26-.12.43-.42.14-.61-.31-.33-.49-.06ZM76.23,25.66l.79-.68.29-1-.41-.47-.82-.13h-.88s-.84-.5-.84-.5l-.72-.18-.63.17-.55.53-.51,1.56-.1.19.18.61h.43s.5-.28.5-.28l.41-.16,1.86.4.98-.06ZM67.69,54.55l-.32-.26-.31-.53-.36-.25-.33.45-.25.76-.14.92v.2s.18.06.18.06l.32-.18.12-.04.12.29.29.51.44.2.52-.08.4-.17.57-.58.19-.35-.34-.37-1.1-.58ZM4.72,20.88l-.33-.04-.23.18-.48.5-.75.6-.13.44.36.46.15.28v.07s0,.15,0,.15l.12-.04.23-.24.29-.11.35.03.33-.18.18-.49.14-.58.2-.51-.06-.35-.36-.18ZM4.2,12.85l-2.48.87-1.13-.41-.47,2,1.36,1.16,1.82.26.91-.72-.24-.22-.52-.09-.44-.22-.02-.59.24-.11,1.14-.1.87.53.62-.45.07-.83-.49-.61-1.24-.47ZM79.02,30.91l-.09-.54-.43-.49-.56-.44-.61-.52-.28-.32-.21-.37-.05-.2-.14-1.03-.07-.24-.11-.17-.17-.09-.26.06-.25.21-.22.29-.14.27-.25,1.06-.19.45-.39.36,3.03,2.36.9-.06.47-.61ZM143.26,39.1l-.66-.57-1.06-.12-1.09-.41-1.5-.2-2.51-1.39-1.13-.46-1.12-.74-1.23-.19-1.2.38-.99-.84.08-.91.47-.96.18-1.11v-1.14s-1.17.38-1.17.38l-.53-.69,1.3-1.53-.22-1.02-.36-1.01.26-.77v-.92s-.1-.87-.1-.87l2.27-1.67.92-.3.51-.79.23-2.29-1.06-1.62-.87-.18-.83-.38-.62-1.67-.99-.05-1.06.07-1.15-.84-.55-1.5-.23-2.67-.43-1.34-.3-.26-.35.06-.24.23-.3.04-.76-.54-1.86.66-1.71-.42-.69-.42-.71-.64-.02-1.07.35-1.01.25-.38.18-.37-.3-.25-.38-.09-.36.08-.31.24-.59.77-.66.67-1.02.17-.9-.61-.17-.55-.07-.56-.32-.2-.34.36-.12.58v1.87s-.59.91-.59.91l-1.64-.78-1.5-1.36-.53-.55-.55.07-.49-.72-.31-.94-.41-.49-.48-.39-.37-.89-.66-.42-1.57-1-.88-.43-.55.7-.61,1.51-.91,2.25-.74.85-1.72,1.34-.78.79-3.81,5.84-1.78,1.42-1.15.44-.83.09-.54.39-.24,1.35.31,4.86h0s.68-.46.68-.46l.44-.06.33.42-.47.9-.2,1.13.05.65h0s.04.48.04.48l.42.88.19.85-.22,1.2-.75,2,2.57,1.86.84.87-1.08-.07-1.74-.73-1.37-1.15.02-1.32.24-.73.07-1.07-.09-1.04-.22-.67-.6-.4-.58.11-.65.31-.78.17-2.46-.88-.59.11-.17.76.64,4.64.48,1.78.18,1.14v.76s.52.5.52.5l.46.79.4.65.35.83.22.5,2.03-.07,2.29-.08,2.63,2.53v1.33s.48,1.1.48,1.1l.72.47.42.7-.42,1.39-.64,1.23-.59.43-.33.25-1.41.41-.59.59-.87,1.26.1.65,1.94,1.48,1.4.44.85.17.54.03.54-.17.67.12.28.43.62-.02.42.12.35.23.27.34.21.46-.98.14-.7-.42-.62-.09-.75,1.13-.22,1.2-.22.53-.47.18-.43-.21-.22-.47-.05-.61.05-.63-.69.34-.58-.19-.59-.37-.71-.2-.87.22-.49.03-.33-.25-.28.27-.13.09-.2.06.36.7.3.75.31.6.4.24,1.2-.17.14.19-.54.74-.45.25-.62.21-.54.32-.24.57.14.77.41.13,1.3-.3-.66.93-.27.5-.02.52.29.29.48.02.52-.18.41-.33,1.59-1.73.86-.62,1.06-.54v.68s.23.44.23.44l.43.25.58.12.93-.8.62-.34.28.2-.07,1.04-.25.37-1.21.33-1.13.02-.76.29-.71.34-.62.85-.52.95.09.96-.16.75.19.56v.63s2.04.62,2.04.62l.86-.22.85-.18.42.42.43-.23.21-.98.08-.9.24-.89.39-.52.51.23-.33,1.48.44,1.09.61.95.19,1.06-.39-.3-.44-.15-.48-.03-.5.07.42.32.19.09v.35l-2.67.29.6,1.49,1.58,1.56,1.75,1.03,1.48.21,1.04-.34.32-.39-.14-1.73.4-.57,2.67-.75-.12.65-.29.2-.4.06-.62.35h-.23s-.24.02-.24.02l-.24.23.08.12.41.44.09.24-.31,1.35-.48.55-.67.32-.57.44h.01s2.08.43,2.08.43h1.75s3.71-1.59,3.71-1.59l1.93.88,1.73,1.45,2.11.29,2-.59,1.9-.91,1.49-.5.4-1.64.73-.79,1.14-.5.54-.7.37-.93.69-.74.87.18.25.34,1.12-.78,2.13-3.97.22-.48.26-.44.35-.28.36-.25.36-.54.31-.6,2.42-4.49,1.98-4.88,2.75-5.88.34-1.26-.26-1.26.59-1.02.83-1.01.89-.37.47-1-.51-.87ZM115.24,38.85l-.62.32-.68.45v1.02s.37.4.37.4l-.77,1.05-.42.74-1.16.69-1.27.3-1.31.66-.51-1.18-1.12.26-1.11.35-.78.45-.82.13-1.92-.07-1.31-1.72-1.29-.39-.89-.59-.24-1.62-.89-1.26-1.06-1.29.67-1.44,1.25.08,1.43.87,1.06-.36.95-.58.07-.97.26-.89,2-.19,1.03-1.31.63-1.33.89-.95,1.39-.33,1.61.13.77,1.32.3,1.79.47,1.25.03,1.38-.41,1.59h1.22s1.05-.39,1.05-.39h.91s.34.81.34.81l-.12.84ZM89.43,54.2l-.24-.24-.85-.36-.52-.3-.19-.44.13-.49-.14-.05-.63.55-.73-.36-.1.11.32.37.33.58.24.83-.02.67-.58.66.2.33-.07.38-.49.66v.28s1.02-.13,1.02-.13l2.28-1.82.24-.52-.11-.48-.11-.26ZM83.63,52.86l-1.02-.09-.79.42-.37.51-.08.73.1.71.29.18.37-.04.35.26.51-.12.39-.46.04-.34.19-.37.48-.16.2-.23-.17-.68-.46-.31ZM86.08,32.82l-.25-.6-.25-.3.15-.47-.15-2.03-.09-.42-.41-.76-.1-.38.05-.34.23-.76.05-.45-.23-.91-.57-.57-1.44-.72-.68-.62-.67-.8-.71-.52-.81.21-1.05,1.23-.43.16-.19.61.04,2.67-.16.61.1.46,1.59,3.04.23.31.25.17.05.27-.38.59-.33.22-1.37.36.92,1.23.87.41,2.35-.13.17-.11.19-.19.24-.08.34.21.47.51.27.12.34-.04.45-.39.5-1.19.58-.35-.14-.25Z"/>
      <path class="cls-1" d="M48.1,30.34l-.35.06-.05.49.24.7.15.31.26-.12.43-.42.14-.61-.31-.33-.49-.06ZM76.23,25.66l.79-.68.29-1-.41-.47-.82-.13h-.88s-.84-.5-.84-.5l-.72-.18-.63.17-.55.53-.51,1.56-.1.19.18.61h.43s.5-.28.5-.28l.41-.16,1.86.4.98-.06ZM67.69,54.55l-.32-.26-.31-.53-.36-.25-.33.45-.25.76-.14.92v.2s.18.06.18.06l.32-.18.12-.04.12.29.29.51.44.2.52-.08.4-.17.57-.58.19-.35-.34-.37-1.1-.58ZM4.72,20.88l-.33-.04-.23.18-.48.5-.75.6-.13.44.36.46.15.28v.07s0,.15,0,.15l.12-.04.23-.24.29-.11.35.03.33-.18.18-.49.14-.58.2-.51-.06-.35-.36-.18ZM4.2,12.85l-2.48.87-1.13-.41-.47,2,1.36,1.16,1.82.26.91-.72-.24-.22-.52-.09-.44-.22-.02-.59.24-.11,1.14-.1.87.53.62-.45.07-.83-.49-.61-1.24-.47ZM79.02,30.91l-.09-.54-.43-.49-.56-.44-.61-.52-.28-.32-.21-.37-.05-.2-.14-1.03-.07-.24-.11-.17-.17-.09-.26.06-.25.21-.22.29-.14.27-.25,1.06-.19.45-.39.36,3.03,2.36.9-.06.47-.61ZM143.26,39.1l-.66-.57-1.06-.12-1.09-.41-1.5-.2-2.51-1.39-1.13-.46-1.12-.74-1.23-.19-1.2.38-.99-.84.08-.91.47-.96.18-1.11v-1.14s-1.17.38-1.17.38l-.53-.69,1.3-1.53-.22-1.02-.36-1.01.26-.77v-.92s-.1-.87-.1-.87l2.27-1.67.92-.3.51-.79.23-2.29-1.06-1.62-.87-.18-.83-.38-.62-1.67-.99-.05-1.06.07-1.15-.84-.55-1.5-.23-2.67-.43-1.34-.3-.26-.35.06-.24.23-.3.04-.76-.54-1.86.66-1.71-.42-.69-.42-.71-.64-.02-1.07.35-1.01.25-.38.18-.37-.3-.25-.38-.09-.36.08-.31.24-.59.77-.66.67-1.02.17-.9-.61-.17-.55-.07-.56-.32-.2-.34.36-.12.58v1.87s-.59.91-.59.91l-1.64-.78-1.5-1.36-.53-.55-.55.07-.49-.72-.31-.94-.41-.49-.48-.39-.37-.89-.66-.42-1.57-1-.88-.43-.55.7-.61,1.51-.91,2.25-.74.85-1.72,1.34-.78.79-3.81,5.84-1.78,1.42-1.15.44-.83.09-.54.39-.24,1.35.31,4.86h0s.68-.46.68-.46l.44-.06.33.42-.47.9-.2,1.13.05.65h0s.04.48.04.48l.42.88.19.85-.22,1.2-.75,2,2.57,1.86.84.87-1.08-.07-1.74-.73-1.37-1.15.02-1.32.24-.73.07-1.07-.09-1.04-.22-.67-.6-.4-.58.11-.65.31-.78.17-2.46-.88-.59.11-.17.76.64,4.64.48,1.78.18,1.14v.76s.52.5.52.5l.46.79.4.65.35.83.22.5,2.03-.07,2.29-.08,2.63,2.53v1.33s.48,1.1.48,1.1l.72.47.42.7-.42,1.39-.64,1.23-.59.43-.33.25-1.41.41-.59.59-.87,1.26.1.65,1.94,1.48,1.4.44.85.17.54.03.54-.17.67.12.28.43.62-.02.42.12.35.23.27.34.21.46-.98.14-.7-.42-.62-.09-.75,1.13-.22,1.2-.22.53-.47.18-.43-.21-.22-.47-.05-.61.05-.63-.69.34-.58-.19-.59-.37-.71-.2-.87.22-.49.03-.33-.25-.28.27-.13.09-.2.06.36.7.3.75.31.6.4.24,1.2-.17.14.19-.54.74-.45.25-.62.21-.54.32-.24.57.14.77.41.13,1.3-.3-.66.93-.27.5-.02.52.29.29.48.02.52-.18.41-.33,1.59-1.73.86-.62,1.06-.54v.68s.23.44.23.44l.43.25.58.12.93-.8.62-.34.28.2-.07,1.04-.25.37-1.21.33-1.13.02-.76.29-.71.34-.62.85-.52.95.09.96-.16.75.19.56v.63s2.04.62,2.04.62l.86-.22.85-.18.42.42.43-.23.21-.98.08-.9.24-.89.39-.52.51.23-.33,1.48.44,1.09.61.95.19,1.06-.39-.3-.44-.15-.48-.03-.5.07.42.32.19.09v.35l-2.67.29.6,1.49,1.58,1.56,1.75,1.03,1.48.21,1.04-.34.32-.39-.14-1.73.4-.57,2.67-.75-.12.65-.29.2-.4.06-.62.35h-.23s-.24.02-.24.02l-.24.23.08.12.41.44.09.24-.31,1.35-.48.55-.67.32-.57.44h.01s2.08.43,2.08.43h1.75s3.71-1.59,3.71-1.59l1.93.88,1.73,1.45,2.11.29,2-.59,1.9-.91,1.49-.5.4-1.64.73-.79,1.14-.5.54-.7.37-.93.69-.74.87.18.25.34,1.12-.78,2.13-3.97.22-.48.26-.44.35-.28.36-.25.36-.54.31-.6,2.42-4.49,1.98-4.88,2.75-5.88.34-1.26-.26-1.26.59-1.02.83-1.01.89-.37.47-1-.51-.87ZM115.24,38.85l-.62.32-.68.45v1.02s.37.4.37.4l-.77,1.05-.42.74-1.16.69-1.27.3-1.31.66-.51-1.18-1.12.26-1.11.35-.78.45-.82.13-1.92-.07-1.31-1.72-1.29-.39-.89-.59-.24-1.62-.89-1.26-1.06-1.29.67-1.44,1.25.08,1.43.87,1.06-.36.95-.58.07-.97.26-.89,2-.19,1.03-1.31.63-1.33.89-.95,1.39-.33,1.61.13.77,1.32.3,1.79.47,1.25.03,1.38-.41,1.59h1.22s1.05-.39,1.05-.39h.91s.34.81.34.81l-.12.84ZM89.43,54.2l-.24-.24-.85-.36-.52-.3-.19-.44.13-.49-.14-.05-.63.55-.73-.36-.1.11.32.37.33.58.24.83-.02.67-.58.66.2.33-.07.38-.49.66v.28s1.02-.13,1.02-.13l2.28-1.82.24-.52-.11-.48-.11-.26ZM83.63,52.86l-1.02-.09-.79.42-.37.51-.08.73.1.71.29.18.37-.04.35.26.51-.12.39-.46.04-.34.19-.37.48-.16.2-.23-.17-.68-.46-.31ZM86.08,32.82l-.25-.6-.25-.3.15-.47-.15-2.03-.09-.42-.41-.76-.1-.38.05-.34.23-.76.05-.45-.23-.91-.57-.57-1.44-.72-.68-.62-.67-.8-.71-.52-.81.21-1.05,1.23-.43.16-.19.61.04,2.67-.16.61.1.46,1.59,3.04.23.31.25.17.05.27-.38.59-.33.22-1.37.36.92,1.23.87.41,2.35-.13.17-.11.19-.19.24-.08.34.21.47.51.27.12.34-.04.45-.39.5-1.19.58-.35-.14-.25Z"/>
    </g>
  </g>
</svg>