<?xml version="1.0" encoding="UTF-8"?>
<svg id="_레이어_2" data-name="레이어 2" xmlns="http://www.w3.org/2000/svg" viewBox="0 0 74.22 70.04">
  <defs>
    <style>
      .cls-1 {
        fill: #a3a3a3;
        stroke: #f9f9f9;
        stroke-linecap: round;
        stroke-linejoin: round;
        stroke-width: .25px;
      }
    </style>
  </defs>
  <g id="South_Korea" data-name="South Korea">
    <path id="Gyeongsangnam-do" class="cls-1" d="M28.09,59.79l.13-.17-.03-.38.23-.12h.48l.18-.29-.25-.42-.67-.75-.56-.13-.6.45-.31.5-.05.29.28.42.49.34.26.13.42.12ZM20.25,58.69l-1.5-.25-1.04.22-1.1.43-.86.15-.54-.96-.96-.32-.38-.27-.25-.5-.21-.95-.18-.38,1-1.05.39-.68.06-.72-.35-.68-.59-.53-.68-.21-.59.29-.72.56-.26.34-.21,1.2-.27.18-.35.06-.34.25-.51.98-.12.96.16.97,1.23,4.02.1.69v.48s.08.4.08.4l.28.49.41.27.67.23.63-.02.27-.48.15-1.13.4-.92.58-.4.73.4.5,2.2.44,1.05.73-.1.83-.38.7.31.65.39.69-.13.19-.55-.38-1.1.36-.2.25-.28.04-.64-.12-1.12.13-.71.25-.58.13-.54-.23-.62-.31-.12ZM29.76,68.75l-.2-.02v-.34s-1.42-.76-1.42-.76l-.3.08-.18.17-.02.3-.12.25-.02.27.2.15.17.04.2.2.04.28-.16.35.04.2.27-.06.23-.22.48-.24.35-.05.42.09.29-.04.19-.13.43-.53.07-.29-.11-.12-.84.42ZM20.69,57.17l-.26-.36-.25-.9-.1-.65-.22-.12-.23-.22-.13-.38-.43.07-.52.83-.26.59-.24-.16-.04-.5.16-.6.31-.88-.23-.6-.71.19-.41.52-.39.74-.61.79-.31.84.39.77.66.41.65.08,1.1-.36,2.02.53.47-.12-.25-.37-.18-.14ZM73.91,31.34l-1.27-.45-.97-.96-.3-1.52-1.02-.8-2.3-1.27-1.93-2.21-1.16-.88-2.75-.42-.67-1.35,1.12-2.25-.19-2.18-1.25.42-1.32-.62-1.72-.43-1.61.66-.51.66-.61.53-.65.08-.64.24-1.45,1.15-1.67-.05-1.39-.73-1.46-.45-1.67.3-1.62.18-1.4-.89-1.13-1.38-.37-3.04-1.03.8-1.1,1.57-1.22-.25-2.39,1.23-1.27-.26-1.14-.86-1.21-.58-1.29-.22-1.35.19-2.75-.12-.7-2.54.54-1.24.03-1.3-.6-.7-.69-.43-.15-.47-.25-.51-.99-.7-.6-1.13-.85-.92-1.15-.39h-1.26s-1.28-.09-1.28-.09l-.72-.49-.59-.49-1.35-.11-.36-.12-.36-.16-.18-.45-.04-.44-.41-.35-.42-.31-.9-.53-.36-1.22-1.63,1.76-.43,1.16-2.22,1.18-1.1.34-.61-.07-.44.28-.84,1.82-.96,1.01-1.02.91-.5,1.44-.13,1.69-.56,1.23-.69,1.3-.52,1.66-.38,1.71-.62,1.27-.05,1.38,1.14.48.17.61.08.69.49,1.29-.08,1.4.46,1.03.64.43-.27,1.5-1.86,2.23-.3,1.46-.06,1.35-.94.96-.24,1.19.92,1.08.45,1.4.19,2.9.6,1.09,1.1.8,1,1.05.39,1.15.48,1.01,2.78,3.03.6,1.48v1.01s.11.24.11.24h0s.47.13.47.13l.66.55.27-.26.35-.04.43.11.48.19,1.19-.11.93-.84.48-1.39.13-1.76.5.39.28.53.47,1.31,1.16-.73,1.21.03.56-.38-.82-1.93,1.07-.09.71-.73.57-.98.7-.84-.05.67-.2.52-.23.4-.13.3-.07.65.07,4.04-.07.37-.11.41-.02.43.21.44.37.2,1.05.09.64.15.5-.09.21.05.05.21v.8s.11.29.11.29l.82.46,2.07-.09.94.16-.02-.81.09-.84.25-.66.45-.27,1.01.1.49.32.94,1.27,1.04-.07.73-1.42.73-.72,1.01,2.04-1.03.4-.46.29.09.45.64.89.58.23,2.77.31-.22.37-.37.07h-.86s-.02.84-.02.84l1.34.09,1-.3,1.13-1.47.62-1.12-.6-.71-.14.54-.31.43-.39.13-.41-.39.33-2.23.06-1.13v-.41s-.06-.28-.06-.28l-.3-.47-.4-.23-.21-.26.3-.53.58.24.87.04.87-.15.57-.32.36-.73-.09-.63-.27-.7-.15-.96-.76.05-4.45,2.37v-.37l.48-.49.09-.75.23-.69,1.75-.48,1.53-.77.83-.17-.52-.73-.03-.38.4-.2,1.48-.28.68.04,2.41.85.31.25.43.45.15.35.02.36.13.29.48.11h.9s.39-.11.39-.11l.39-.26-.32-.08-.55-.24-.35-.05.21-.73-.11-.51-.74-1.01-.38-.66-.19-.51-.32-1.44-.57-1.18v-.58s.57-.88.57-.88l.51-.47.26.15.45,1.44-.17.41.37,1.1-.2.77.9-.36.61.5.55.8.71.56.03-.84.32-.5.38-.16.19.2v2.39l.69-.53.53.06.49.91,1.04.47.45-.21.41-1.51.3.53.17,1,2.94-.05,1.11.13.32-1.31.39-.87.3.04-.04,1.04.04,1.11.62-.04,1.36-2.41.4-.6.21.19.37-.68.68-.84.64-.97.47-3.23.64-.79.85-.62,1.05-.42,1.13.04.88.56.25,1.2.8,1.11,1.02.83.81,1.04.9.92.09.2.08-.16.43-.89.79-.96.71-1.51.51-1.03v-.31s-.27-.75-.27-.75l.3-.45.26-.52.08-1.01.21-.73-.18-.16ZM54.34,45.34l-.51.05-.47.27-.12.39.24.43.15.45-.05.39.12.28.34.35.22.95.11.24.23-.08.29-.4.2-1.13.02-1.38-.31-.69-.45-.13ZM50.67,54.85l-.43.3-.9.32.7-1.85.18-.65v-.72s-.19-.53-.19-.53l-.27-.51-.21-.64-.02-.32.29-2.02v-.53s-.21-.45-.21-.45l-.79-.31-.69.55-.25.99.53,1-3.13,1.78-.59-.07.05.87.21.93.47.81.83.54v.34l-.83-.06-.6-.29-.58-.38-.73-.31h-.46s-1.67.34-1.67.34l-.58.25-.68.44-.59.58-.29.62.14,1.04.52.78.64.7.51.79.71-.58,1.6-.71.46-.57.61.37-.24.96-.02.85-.32.6-1.11.23-.28.29-.03.63.2.63.41.29,1.38-.71-.23.8-.04.65.24.48.63.3-1.53,1.11.97-.07,3.23-1,.7-.61-.37-.42-.73-.31-.53-.41.25-.71.77-.9.14-.41.14-.76.51.37.84.44.78.27.34-.13-.12-.84-.58-1.23-.25-.73.61.26.39-.38.2-.68.05-.64-.04-.92-.15-.11ZM37,58.56l-.44-.43-.78.05-.69.17-.43.18-.3-.15-.53-.4-.69-.28-.52.13-.36.4.1.36.3.02.51-.16.8.28.43.34-.08.41-.43.34.21.17.58.09.12.36-.09.36h.37s.17.44.17.44l.32.41h.74s.46-.58.46-.58l.18-.33-.37-.3-.37-.07v-.14s.16-.11.16-.11l.45.18.19-.33-.16-.26.24-.44-.12-.7Z"/>
  </g>
</svg>