<?xml version="1.0" encoding="UTF-8"?>
<svg id="_레이어_2" data-name="레이어 2" xmlns="http://www.w3.org/2000/svg" viewBox="0 0 19.91 10.8">
  <defs>
    <style>
      .cls-1 {
        fill: #a3a3a3;
        stroke: #f9f9f9;
        stroke-linecap: round;
        stroke-linejoin: round;
        stroke-width: .25px;
      }
    </style>
  </defs>
  <g id="South_Korea" data-name="South Korea">
    <path id="Inch_on-gwangyoksi" data-name="Inch&amp;apos;on-gwangyoksi" class="cls-1" d="M9.99,2.92l-.24-.22-.17-.27-.18-.18-.37-.18-.27-.05h-.25s-.25-.12-.25-.12l-.26-.15-.25-.1-.52-.52-.63.23-.31,1.26-.91.48-.98-.02-1.45.16-2.02,1.42-.37-.19-.27.08-.17.42.12.29.49.47.1.31-.28.28.48.12.33.15.28-.22.18-.24.27.04.11.27-.08.2.05.12.15-.05.16-.18.35.22.19.69.18.04.41-.05.44.1,1.95-1.47.31-.55.56-.51,1.04-.46.47-.22.35.06.78-.19.15-.2.38-.28.24-.1-.11-.3-.18-.38ZM19.36,5.56l-.72-.47-.48-1.1v-1.33S15.53.12,15.53.12l-2.29.08-2.03.07-.22,1.36.1,1.03.24.56.92-.1.16-.49.6.16-.1.47-.38.2-1.28.39-.43.76.15.81-.1,1.03.73.39.8.43.37.63-.59.89-.46,1.02,1.13.86,1.09-1.39,2.34.3.13.38,1.41-.41.33-.25.59-.43.64-1.23.42-1.39-.42-.7Z"/>
  </g>
</svg>