<?xml version="1.0" encoding="UTF-8"?>
<svg id="_레이어_2" data-name="레이어 2" xmlns="http://www.w3.org/2000/svg" viewBox="0 0 18.15 14.6">
  <defs>
    <style>
      .cls-1 {
        fill: #a3a3a3;
        fill-rule: evenodd;
        stroke: #f9f9f9;
        stroke-linecap: round;
        stroke-linejoin: round;
        stroke-width: .25px;
      }
    </style>
  </defs>
  <g id="South_Korea" data-name="South Korea">
    <polygon id="Seoul" class="cls-1" points="14.51 7.6 15.73 7.58 16.78 7.2 17.69 7.19 18.03 8.01 17.91 8.85 17.29 9.16 16.61 9.61 16.62 10.63 16.98 11.04 16.21 12.08 15.79 12.82 14.63 13.51 13.36 13.8 12.05 14.46 11.54 13.29 10.42 13.55 9.31 13.89 8.53 14.34 7.71 14.48 5.8 14.41 4.49 12.69 3.19 12.3 2.3 11.71 2.07 10.09 1.18 8.83 .12 7.53 .79 6.1 2.04 6.18 3.47 7.05 4.54 6.69 5.48 6.11 5.56 5.14 5.81 4.25 7.82 4.06 8.85 2.74 9.47 1.41 10.36 .46 11.76 .12 13.36 .26 14.13 1.58 14.42 3.37 14.89 4.63 14.92 6 14.51 7.6"/>
  </g>
</svg>