<?xml version="1.0" encoding="UTF-8"?>
<svg id="_레이어_2" data-name="레이어 2" xmlns="http://www.w3.org/2000/svg" viewBox="0 0 157.19 332.54">
  <defs>
    <style>
      .cls-1 {
        fill: #fff;
      }

      .cls-2 {
        fill: #e5518d;
      }
    </style>
  </defs>
  <g id="OBJECTS">
    <g>
      <g>
        <circle class="cls-2" cx="78.68" cy="37.42" r="37.42" transform="translate(24.18 105.4) rotate(-76.72)"/>
        <path class="cls-2" d="M156.76,187.25l-24.97-94.01c-.03-.1-.06-.2-.09-.29-2.35-6.46-8.49-10.77-15.37-10.77H41.02c-6.89,0-13.03,4.31-15.37,10.77-.03.1-.06.19-.09.29L.59,187.25s-5.18,20.11,15.14,23.87h.31l-6.41,33.76h24.91l12.45,87.66h63.38l12.45-87.66h24.91l-6.41-33.76h.3c19.58-3.22,15.15-23.87,15.15-23.87Z"/>
      </g>
      <path class="cls-1" d="M109.86,127.87c0-17.14-13.94-31.08-31.08-31.08s-31.08,13.94-31.08,31.08c0,14.63,10.16,26.92,23.79,30.21v11.86h-11.52v14.71h11.52v11.52h14.71v-11.52h11.52s0-14.71,0-14.71h-11.52v-11.89c13.56-3.34,23.66-15.6,23.66-30.18ZM62.41,127.87c0-9.03,7.34-16.37,16.37-16.37s16.37,7.34,16.37,16.37-7.34,16.37-16.37,16.37-16.37-7.34-16.37-16.37Z"/>
    </g>
  </g>
</svg>