<?xml version="1.0" encoding="UTF-8"?>
<svg id="_레이어_2" data-name="레이어 2" xmlns="http://www.w3.org/2000/svg" viewBox="0 0 158.66 332.54">
  <defs>
    <style>
      .cls-1 {
        fill: #4c7bd8;
      }

      .cls-2 {
        fill: #fff;
      }
    </style>
  </defs>
  <g id="OBJECTS">
    <g>
      <g>
        <path class="cls-1" d="M123.25,82.17H35.42C13.84,82.17-2.72,101.3.37,122.66l11.55,79.69c1.17,8.06,8.07,14.03,16.21,14.03h2.43l14.06,116.16h69.42l14.06-116.16h2.51c8.11,0,14.99-5.96,16.15-13.98l11.56-79.94c2.97-21.29-13.57-40.29-35.07-40.29Z"/>
        <circle class="cls-1" cx="79.33" cy="37.42" r="37.42" transform="translate(-3.23 67.06) rotate(-45)"/>
      </g>
      <path class="cls-2" d="M86.77,172.23v-14.03c13.6-3.35,23.72-15.64,23.72-30.25,0-17.18-13.98-31.16-31.16-31.16s-31.16,13.98-31.16,31.16c0,14.66,10.19,26.99,23.85,30.29v14l-11.47-7.63-8.17,12.28,27.02,17.97,27.02-17.97-8.17-12.28-11.47,7.63ZM62.92,127.95c0-9.05,7.36-16.41,16.41-16.41s16.41,7.36,16.41,16.41-7.36,16.41-16.41,16.41-16.41-7.36-16.41-16.41Z"/>
    </g>
  </g>
</svg>