<?xml version="1.0" encoding="UTF-8"?>
<svg id="_레이어_2" data-name="레이어 2" xmlns="http://www.w3.org/2000/svg" viewBox="0 0 281.96 299.62">
  <defs>
    <style>
      .cls-1 {
        fill: none;
      }

      .cls-1, .cls-2, .cls-3 {
        stroke: #f9f9f9;
        stroke-linecap: round;
        stroke-linejoin: round;
        stroke-width: .25px;
      }

      .cls-4, .cls-2, .cls-3 {
        fill: #a3a3a3;
      }

      .cls-3 {
        fill-rule: evenodd;
      }
    </style>
  </defs>
  <g id="South_Korea" data-name="South Korea">
    <polygon id="Ulsan" class="cls-3" points="208.73 168.79 212.88 168.04 216.41 168.9 216.45 168.89 216.52 168.97 216.82 169.5 216.65 170.7 216.56 172.12 216.25 174.25 215.8 175.15 215.07 176.14 214.39 176.5 214.1 175.54 213.83 174.28 213.26 173.33 212.64 173.17 212.26 174.25 212.87 174.39 213.24 174.85 213.41 175.52 213.45 176.3 213.26 177.04 212.8 177.21 212.29 177.26 211.93 177.61 212 178.01 212.05 179.03 212.23 180.08 211.82 180.75 211.44 181.42 211.81 181.95 212.11 182.25 212.05 182.99 211.13 183.3 210.27 183.82 209.03 185.05 207.98 185.01 207.96 185.07 207.78 184.91 206.51 184.46 205.54 183.5 205.24 181.98 204.21 181.18 201.92 179.91 199.99 177.7 198.83 176.82 196.08 176.4 195.41 175.05 196.53 172.79 196.34 170.61 197.41 169.74 198.56 169.07 199.25 169.05 199.53 168.51 199.1 167.8 198.86 167.03 200.36 165.86 202.25 165.2 203.79 164.97 205.31 165.29 206.88 165.97 207.29 166.64 207.31 167.46 207.42 168.19 207.98 168.59 208.73 168.79"/>
    <polygon id="Taegu-gwangyoksi" class="cls-3" points="184.41 155.8 184.07 155.7 183.65 155.74 183.68 156.1 183.62 156.57 183.2 157.67 183.19 158.02 183.06 158.54 182.06 159.14 179.48 158.47 178.04 158.32 177.4 158.83 176.76 159.94 176.42 160.23 176.01 159.89 175.46 159.54 174.67 158.9 174.14 157.87 173.49 157.23 172.8 156.96 172.53 155.94 173.15 155.08 173.82 155.08 174.54 154.96 174.73 154.44 174.81 153.89 174.42 153.74 173.99 153.67 174.47 152.59 175.24 151.75 174.96 149.23 177.06 147.49 179.9 147.11 182.26 146.95 184.05 148.27 184.62 149.26 184.59 149.69 184.38 150.06 184.39 151.45 184.75 151.99 185.23 152.4 185.32 153.28 185.35 154.21 185.11 155.08 184.41 155.8"/>
    <polygon id="Seoul" class="cls-3" points="111.84 61.03 113.06 61.02 114.11 60.64 115.02 60.63 115.36 61.45 115.24 62.29 114.62 62.6 113.94 63.05 113.95 64.07 114.31 64.48 113.55 65.52 113.12 66.26 111.97 66.95 110.69 67.24 109.38 67.9 108.87 66.73 107.75 66.98 106.64 67.33 105.86 67.78 105.04 67.91 103.13 67.85 101.82 66.12 100.53 65.73 99.64 65.15 99.4 63.53 98.51 62.27 97.46 60.97 98.13 59.53 99.38 59.61 100.81 60.49 101.87 60.13 102.82 59.55 102.89 58.58 103.15 57.69 105.15 57.49 106.18 56.18 106.81 54.85 107.7 53.9 109.09 53.56 110.7 53.69 111.46 55.02 111.76 56.81 112.22 58.06 112.25 59.44 111.84 61.03"/>
    <polygon id="Kyongsang-namdo" class="cls-3" points="141.58 219.47 142.05 219.59 142.45 220.23 142.77 221.03 143.15 222.39 143.19 223.18 143.06 223.95 142.73 224.69 142.29 225.15 141.79 225.19 141.28 224.92 139.7 223.31 139.52 222.69 139.79 221.69 139.98 221.43 140.82 220.79 140.97 220.47 141.31 219.09 140.63 218.37 140.71 217.93 141.2 217.71 141.75 217.64 142.23 217.86 142.35 218.37 142.12 218.96 141.58 219.47"/>
    <polygon id="Kwangju-gwangyoksi" class="cls-3" points="106.02 189.27 106.93 191.77 105.17 194.12 102.41 193.68 99.98 192.22 98.76 189.53 99.72 188.62 101.32 189.04 102.5 188.78 103.72 188.41 106.02 189.27"/>
    <path id="Jeollabuk-do" class="cls-2" d="M75.55,168.42l-.16.18-.34.27-.51-.09h-.19s.08.29.08.29l-.16.07-.27.04-.17.24-.25.14-.11.13.22.14.07.09-.47.25-.09.35.14.36.2.21.26-.06.15-.13.35-.27.55-.62.82-.71.17-.41-.09-.33-.19-.15ZM145.85,147.06l-.57.6-.57.52-.66-.35-.65-.62-1.65.74-1.43.88-.72-.21-.42-.52-2-.66-.67-.79-.76-.45-.29.39-.36.09-.42-.39-.38-.46-1.06,1.06-1.08.95-1.32.37-1.32.06-.96.24-2.58-.34-.18-.44.31-.63-.27-.55-.57-.15-1.48-.75-2.01-3.62-1.43-1.27-.75.77-.6.94-.94.19-.63.28-.65.23-2.46.48-1.25.49-1.32.25-.95-1.48.4-2.44-1.65-.33-4.62,1.46-2.51.54-2.14.23-2.01,2.48h0s2.62-.81,2.62-.81l-.08.8-.88.63-2.09.83-1.65,1.25-.94.48-.77-.22-.72.43-2.23.13-2.2.27-4.05.44.19,1.66,1.96-.31,1.33.46.41.36.14,1.31.02.95,2.13.17,2.16.14,1.1-.05,3.28-1.33.14-.11.53.2.48.41.23.4-.2.18-.61.11-.21.28-.1.41-.27.5-.4.21-.54.04-2.49-.16-.41.09-.37.3-.37.51-.12.48.41.21.79.59.97.66.85.42.41.3.6.48-.07.65-.15.62-.19.45-.48-.82-.71-.18-.99-.77-1.57-.19-1.6.16-.27.23-.51.32-.69.41-.19,1.64-1.25,1.75-1.64.91-1.34.78-.84.97-.91.9-1.05.52-.04.59-.13,1.48,2.21,1.38,6.33-1.04.68.39.41.93.58,2.05-.6-.2-.82-1.01-.8-.9-.89.23-.63.91-.65.53-1.42.08-1.66.34-1.46.52-1.02,1.47-1.21,2.83-.77,1.6-.33,1.29.22.58.62.7h0s.92-.3.92-.3l4.34-1.21,1.29.35-.26,2-.29,1.47-.06,1.48,1.11.37,1.33-.33,1.42-.51,1.5-.22.6-.44.65-.39.77-.22.73-.35.59-.51.37-.78-.09-.56-.03-.58.56-.41.41-.62-.04-.74v-.74s1.13-1.01,1.13-1.01l1.51.15.74-.88.81.06.78.33,1.37,1.12,2.09,2.84,1.38-.02.11-.78.29-.72.44-.42.32-.56,1.31-.07.9,1.37-.4,1.58.27,1.02.91,1.03-.06,1.81,1.07,1.15,1.66.25,1.28-.77,1.35-.22h.93s.78-.19.78-.19l.68.52.76.45,1.64.03,1.62-.22h1.48s1.4-.21,1.4-.21l1.3-1.4,1.62-.9,2.86,1.03,2.55,2.06.94-.96.06-1.35.3-1.46,1.86-2.23.27-1.5-.64-.43-.46-1.03.08-1.4-.49-1.29-.08-.69-.17-.61-1.14-.48.05-1.38.62-1.27.38-1.71.52-1.66.69-1.3.56-1.23.13-1.69.5-1.44,1.02-.91.96-1.01.84-1.82.44-.28.61.07,1.1-.34,2.22-1.18.43-1.16,1.63-1.76.21-3.51-1.83-3.12Z"/>
    <polygon id="Jeju" class="cls-3" points="104.26 284.51 104.6 285.2 104.39 285.44 103.96 285.56 103.65 285.93 103.67 286.25 103.95 286.74 103.95 287.03 103.8 287.32 103.42 287.82 103.34 287.98 102.54 288.91 101.02 290.12 100.55 291.13 99.88 292.31 99.85 292.78 99.55 293.48 98.45 293.61 98.02 293.83 96.85 293.73 95.14 295.08 90.63 295.91 89.12 297.2 87.27 297.61 85.29 297.41 83.03 297.83 81.15 297.27 76.91 297.33 75.58 297.95 74.8 299.34 74.08 299.49 73.36 299.15 72.34 297.5 70.99 297.04 69.67 295.66 69.22 293.98 70.01 291.81 70.76 290.46 71.23 289.99 72.78 289.07 74.1 286.76 75.32 286.45 75.89 285.23 77.98 284.51 82.53 283.2 83.67 282.22 88.02 281.76 90.99 280.47 91.7 280.67 95.3 280.09 97.4 279.91 98.78 280.15 99.31 280.94 99.97 281.46 102.12 282.31 102.78 282.98 103.22 284.58 103.65 285.21 103.85 284.96 104.14 284.73 104.26 284.51"/>
    <path id="Inch_on-gwangyoksi" data-name="Inch&amp;apos;on-gwangyoksi" class="cls-2" d="M87.76,63.75l-.24-.22-.17-.27-.18-.18-.37-.18-.27-.05h-.25s-.25-.12-.25-.12l-.26-.15-.25-.1-.52-.52-.63.23-.31,1.26-.91.48-.98-.02-1.45.16-2.02,1.42-.37-.19-.27.08-.17.42.12.29.49.47.1.31-.28.28.48.12.33.15.28-.22.18-.24.27.04.11.27-.08.2.05.12.15-.05.16-.18.35.22.19.69.18.04.41-.05.44.1,1.95-1.47.31-.55.56-.51,1.04-.46.47-.22.35.06.78-.19.15-.2.38-.28.24-.1-.11-.3-.18-.38ZM97.13,66.39l-.72-.47-.48-1.1v-1.33s-2.63-2.53-2.63-2.53l-2.29.08-2.03.07-.22,1.36.1,1.03.24.56.92-.1.16-.49.6.16-.1.47-.38.2-1.28.39-.43.76.15.81-.1,1.03.73.39.8.43.37.63-.59.89-.46,1.02,1.13.86,1.09-1.39,2.34.3.13.38,1.41-.41.33-.25.59-.43.64-1.23.42-1.39-.42-.7Z"/>
    <path id="Gyeongsangnam-do" class="cls-2" d="M161.96,213.36l.13-.17-.03-.38.23-.12h.48l.18-.29-.25-.42-.67-.75-.56-.13-.6.45-.31.5-.05.29.28.42.49.34.26.13.42.12ZM154.11,212.26l-1.5-.25-1.04.22-1.1.43-.86.15-.54-.96-.96-.32-.38-.27-.25-.5-.21-.95-.18-.38,1-1.05.39-.68.06-.72-.35-.68-.59-.53-.68-.21-.59.29-.72.56-.26.34-.21,1.2-.27.18-.35.06-.34.25-.51.98-.12.96.16.97,1.23,4.02.1.69v.48s.08.4.08.4l.28.49.41.27.67.23.63-.02.27-.48.15-1.13.4-.92.58-.4.73.4.5,2.2.44,1.05.73-.1.83-.38.7.31.65.39.69-.13.19-.55-.38-1.1.36-.2.25-.28.04-.64-.12-1.12.13-.71.25-.58.13-.54-.23-.62-.31-.12ZM163.63,222.32l-.2-.02v-.34s-1.42-.76-1.42-.76l-.3.08-.18.17-.02.3-.12.25-.02.27.2.15.17.04.2.2.04.28-.16.35.04.2.27-.06.23-.22.48-.24.35-.05.42.09.29-.04.19-.13.43-.53.07-.29-.11-.12-.84.42ZM154.56,210.74l-.26-.36-.25-.9-.1-.65-.22-.12-.23-.22-.13-.38-.43.07-.52.83-.26.59-.24-.16-.04-.5.16-.6.31-.88-.23-.6-.71.19-.41.52-.39.74-.61.79-.31.84.39.77.66.41.65.08,1.1-.36,2.02.53.47-.12-.25-.37-.18-.14ZM207.78,184.91l-1.27-.45-.97-.96-.3-1.52-1.02-.8-2.3-1.27-1.93-2.21-1.16-.88-2.75-.42-.67-1.35,1.12-2.25-.19-2.18-1.25.42-1.32-.62-1.72-.43-1.61.66-.51.66-.61.53-.65.08-.64.24-1.45,1.15-1.67-.05-1.39-.73-1.46-.45-1.67.3-1.62.18-1.4-.89-1.13-1.38-.37-3.04-1.03.8-1.1,1.57-1.22-.25-2.39,1.23-1.27-.26-1.14-.86-1.21-.58-1.29-.22-1.35.19-2.75-.12-.7-2.54.54-1.24.03-1.3-.6-.7-.69-.43-.15-.47-.25-.51-.99-.7-.6-1.13-.85-.92-1.15-.39h-1.26s-1.28-.09-1.28-.09l-.72-.49-.59-.49-1.35-.11-.36-.12-.36-.16-.18-.45-.04-.44-.41-.35-.42-.31-.9-.53-.36-1.22-1.63,1.76-.43,1.16-2.22,1.18-1.1.34-.61-.07-.44.28-.84,1.82-.96,1.01-1.02.91-.5,1.44-.13,1.69-.56,1.23-.69,1.3-.52,1.66-.38,1.71-.62,1.27-.05,1.38,1.14.48.17.61.08.69.49,1.29-.08,1.4.46,1.03.64.43-.27,1.5-1.86,2.23-.3,1.46-.06,1.35-.94.96-.24,1.19.92,1.08.45,1.4.19,2.9.6,1.09,1.1.8,1,1.05.39,1.15.48,1.01,2.78,3.03.6,1.48v1.01s.11.24.11.24h0s.47.13.47.13l.66.55.27-.26.35-.04.43.11.48.19,1.19-.11.93-.84.48-1.39.13-1.76.5.39.28.53.47,1.31,1.16-.73,1.21.03.56-.38-.82-1.93,1.07-.09.71-.73.57-.98.7-.84-.05.67-.2.52-.23.4-.13.3-.07.65.07,4.04-.07.37-.11.41-.02.43.21.44.37.2,1.05.09.64.15.5-.09.21.05.05.21v.8s.11.29.11.29l.82.46,2.07-.09.94.16-.02-.81.09-.84.25-.66.45-.27,1.01.1.49.32.94,1.27,1.04-.07.73-1.42.73-.72,1.01,2.04-1.03.4-.46.29.09.45.64.89.58.23,2.77.31-.22.37-.37.07h-.86s-.02.84-.02.84l1.34.09,1-.3,1.13-1.47.62-1.12-.6-.71-.14.54-.31.43-.39.13-.41-.39.33-2.23.06-1.13v-.41s-.06-.28-.06-.28l-.3-.47-.4-.23-.21-.26.3-.53.58.24.87.04.87-.15.57-.32.36-.73-.09-.63-.27-.7-.15-.96-.76.05-4.45,2.37v-.37l.48-.49.09-.75.23-.69,1.75-.48,1.53-.77.83-.17-.52-.73-.03-.38.4-.2,1.48-.28.68.04,2.41.85.31.25.43.45.15.35.02.36.13.29.48.11h.9s.39-.11.39-.11l.39-.26-.32-.08-.55-.24-.35-.05.21-.73-.11-.51-.74-1.01-.38-.66-.19-.51-.32-1.44-.57-1.18v-.58s.57-.88.57-.88l.51-.47.26.15.45,1.44-.17.41.37,1.1-.2.77.9-.36.61.5.55.8.71.56.03-.84.32-.5.38-.16.19.2v2.39l.69-.53.53.06.49.91,1.04.47.45-.21.41-1.51.3.53.17,1,2.94-.05,1.11.13.32-1.31.39-.87.3.04-.04,1.04.04,1.11.62-.04,1.36-2.41.4-.6.21.19.37-.68.68-.84.64-.97.47-3.23.64-.79.85-.62,1.05-.42,1.13.04.88.56.25,1.2.8,1.11,1.02.83.81,1.04.9.92.09.2.08-.16.43-.89.79-.96.71-1.51.51-1.03v-.31s-.27-.75-.27-.75l.3-.45.26-.52.08-1.01.21-.73-.18-.16ZM188.21,198.91l-.51.05-.47.27-.12.39.24.43.15.45-.05.39.12.28.34.35.22.95.11.24.23-.08.29-.4.2-1.13.02-1.38-.31-.69-.45-.13ZM184.54,208.42l-.43.3-.9.32.7-1.85.18-.65v-.72s-.19-.53-.19-.53l-.27-.51-.21-.64-.02-.32.29-2.02v-.53s-.21-.45-.21-.45l-.79-.31-.69.55-.25.99.53,1-3.13,1.78-.59-.07.05.87.21.93.47.81.83.54v.34l-.83-.06-.6-.29-.58-.38-.73-.31h-.46s-1.67.34-1.67.34l-.58.25-.68.44-.59.58-.29.62.14,1.04.52.78.64.7.51.79.71-.58,1.6-.71.46-.57.61.37-.24.96-.02.85-.32.6-1.11.23-.28.29-.03.63.2.63.41.29,1.38-.71-.23.8-.04.65.24.48.63.3-1.53,1.11.97-.07,3.23-1,.7-.61-.37-.42-.73-.31-.53-.41.25-.71.77-.9.14-.41.14-.76.51.37.84.44.78.27.34-.13-.12-.84-.58-1.23-.25-.73.61.26.39-.38.2-.68.05-.64-.04-.92-.15-.11ZM170.87,212.13l-.44-.43-.78.05-.69.17-.43.18-.3-.15-.53-.4-.69-.28-.52.13-.36.4.1.36.3.02.51-.16.8.28.43.34-.08.41-.43.34.21.17.58.09.12.36-.09.36h.37s.17.44.17.44l.32.41h.74s.46-.58.46-.58l.18-.33-.37-.3-.37-.07v-.14s.16-.11.16-.11l.45.18.19-.33-.16-.26.24-.44-.12-.7Z"/>
    <g id="Gyeonggi-do">
      <path class="cls-4" d="M48.1,53.78l-.35.06-.05.49.24.7.15.31.26-.12.43-.42.14-.61-.31-.33-.49-.06ZM67.69,77.99l-.32-.26-.31-.53-.36-.25-.33.45-.25.76-.14.92v.2s.18.06.18.06l.32-.18.12-.04.12.29.29.51.44.2.52-.08.4-.17.57-.58.19-.35-.34-.37-1.1-.58ZM4.2,36.29l-2.48.87-1.13-.41-.47,2,1.36,1.16,1.82.26.91-.72-.24-.22-.52-.09-.44-.22-.02-.59.24-.11,1.14-.1.87.53.62-.45.07-.83-.49-.61-1.24-.47ZM76.23,49.1l.79-.68.29-1-.41-.47-.82-.13h-.88s-.84-.5-.84-.5l-.72-.18-.63.17-.55.53-.51,1.56-.1.19.18.61h.43s.5-.28.5-.28l.41-.16,1.86.4.98-.06ZM4.72,44.31l-.33-.04-.23.18-.48.5-.75.6-.13.44.36.46.15.28v.07s0,.15,0,.15l.12-.04.23-.24.29-.11.35.03.33-.18.18-.49.14-.58.2-.51-.06-.35-.36-.18ZM79.02,54.35l-.09-.54-.43-.49-.56-.44-.61-.52-.28-.32-.21-.37-.05-.2-.14-1.03-.07-.24-.11-.17-.17-.09-.26.06-.25.21-.22.29-.14.27-.25,1.06-.19.45-.39.36,3.03,2.36.9-.06.47-.61ZM143.26,62.54l-.66-.57-1.06-.12-1.09-.41-1.5-.2-2.51-1.39-1.13-.46-1.12-.74-1.23-.19-1.2.38-.99-.84.08-.91.47-.96.18-1.11v-1.14s-1.17.38-1.17.38l-.53-.69,1.3-1.53-.22-1.02-.36-1.01.26-.77v-.92s-.1-.87-.1-.87l2.27-1.67.92-.3.51-.79.23-2.29-1.06-1.62-.87-.18-.83-.38-.62-1.67-.99-.05-1.06.07-1.15-.84-.55-1.5-.23-2.67-.43-1.34-.3-.26-.35.06-.24.23-.3.04-.76-.54-1.86.66-1.71-.42-.69-.42-.71-.64-.02-1.07.35-1.01.25-.38.18-.37-.3-.25-.38-.09-.36.08-.31.24-.59.77-.66.67-1.02.17-.9-.61-.17-.55-.07-.56-.32-.2-.34.36-.12.58v1.87s-.59.91-.59.91l-1.64-.78-1.5-1.36-.53-.55-.55.07-.49-.72-.31-.94-.41-.49-.48-.39-.37-.89-.66-.42-1.57-1-.88-.43-.55.7-.61,1.51-.91,2.25-.74.85-1.72,1.34-.78.79-3.81,5.84-1.78,1.42-1.15.44-.83.09-.54.39-.24,1.35.31,4.86h0s.68-.46.68-.46l.44-.06.33.42-.47.9-.2,1.13.05.65h0s.04.48.04.48l.42.88.19.85-.22,1.2-.75,2,2.57,1.86.84.87-1.08-.07-1.74-.73-1.37-1.15.02-1.32.24-.73.07-1.07-.09-1.04-.22-.67-.6-.4-.58.11-.65.31-.78.17-2.46-.88-.59.11-.17.76.64,4.64.48,1.78.18,1.14v.76s.52.5.52.5l.46.79.4.65.35.83.22.5,2.03-.07,2.29-.08,2.63,2.53v1.33s.48,1.1.48,1.1l.72.47.42.7-.42,1.39-.64,1.23-.59.43-.33.25-1.41.41-.59.59-.87,1.26.1.65,1.94,1.48,1.4.44.85.17.54.03.54-.17.67.12.28.43.62-.02.42.12.35.23.27.34.21.46-.98.14-.7-.42-.62-.09-.75,1.13-.22,1.2-.22.53-.47.18-.43-.21-.22-.47-.05-.61.05-.63-.69.34-.58-.19-.59-.37-.71-.2-.87.22-.49.03-.33-.25-.28.27-.13.09-.2.06.36.7.3.75.31.6.4.24,1.2-.17.14.19-.54.74-.45.25-.62.21-.54.32-.24.57.14.77.41.13,1.3-.3-.66.93-.27.5-.02.52.29.29.48.02.52-.18.41-.33,1.59-1.73.86-.62,1.06-.54v.68s.23.44.23.44l.43.25.58.12.93-.8.62-.34.28.2-.07,1.04-.25.37-1.21.33-1.13.02-.76.29-.71.34-.62.85-.52.95.09.96-.16.75.19.56v.63s2.04.62,2.04.62l.86-.22.85-.18.42.42.43-.23.21-.98.08-.9.24-.89.39-.52.51.23-.33,1.48.44,1.09.61.95.19,1.06-.39-.3-.44-.15-.48-.03-.5.07.42.32.19.09v.35l-2.67.29.6,1.49,1.58,1.56,1.75,1.03,1.48.21,1.04-.34.32-.39-.14-1.73.4-.57,2.67-.75-.12.65-.29.2-.4.06-.62.35h-.23s-.24.02-.24.02l-.24.23.08.12.41.44.09.24-.31,1.35-.48.55-.67.32-.57.44h.01s2.08.43,2.08.43h1.75s3.71-1.59,3.71-1.59l1.93.88,1.73,1.45,2.11.29,2-.59,1.9-.91,1.49-.5.4-1.64.73-.79,1.14-.5.54-.7.37-.93.69-.74.87.18.25.34,1.12-.78,2.13-3.97.22-.48.26-.44.35-.28.36-.25.36-.54.31-.6,2.42-4.49,1.98-4.88,2.75-5.88.34-1.26-.26-1.26.59-1.02.83-1.01.89-.37.47-1-.51-.87ZM115.24,62.29l-.62.32-.68.45v1.02s.37.4.37.4l-.77,1.05-.42.74-1.16.69-1.27.3-1.31.66-.51-1.18-1.12.26-1.11.35-.78.45-.82.13-1.92-.07-1.31-1.72-1.29-.39-.89-.59-.24-1.62-.89-1.26-1.06-1.29.67-1.44,1.25.08,1.43.87,1.06-.36.95-.58.07-.97.26-.89,2-.19,1.03-1.31.63-1.33.89-.95,1.39-.33,1.61.13.77,1.32.3,1.79.47,1.25.03,1.38-.41,1.59h1.22s1.05-.39,1.05-.39h.91s.34.81.34.81l-.12.84ZM89.43,77.64l-.24-.24-.85-.36-.52-.3-.19-.44.13-.49-.14-.05-.63.55-.73-.36-.1.11.32.37.33.58.24.83-.02.67-.58.66.2.33-.07.38-.49.66v.28s1.02-.13,1.02-.13l2.28-1.82.24-.52-.11-.48-.11-.26ZM86.08,56.25l-.25-.6-.25-.3.15-.47-.15-2.03-.09-.42-.41-.76-.1-.38.05-.34.23-.76.05-.45-.23-.91-.57-.57-1.44-.72-.68-.62-.67-.8-.71-.52-.81.21-1.05,1.23-.43.16-.19.61.04,2.67-.16.61.1.46,1.59,3.04.23.31.25.17.05.27-.38.59-.33.22-1.37.36.92,1.23.87.41,2.35-.13.17-.11.19-.19.24-.08.34.21.47.51.27.12.34-.04.45-.39.5-1.19.58-.35-.14-.25ZM83.63,76.3l-1.02-.09-.79.42-.37.51-.08.73.1.71.29.18.37-.04.35.26.51-.12.39-.46.04-.34.19-.37.48-.16.2-.23-.17-.68-.46-.31Z"/>
      <path class="cls-1" d="M48.1,53.78l-.35.06-.05.49.24.7.15.31.26-.12.43-.42.14-.61-.31-.33-.49-.06ZM67.69,77.99l-.32-.26-.31-.53-.36-.25-.33.45-.25.76-.14.92v.2s.18.06.18.06l.32-.18.12-.04.12.29.29.51.44.2.52-.08.4-.17.57-.58.19-.35-.34-.37-1.1-.58ZM4.2,36.29l-2.48.87-1.13-.41-.47,2,1.36,1.16,1.82.26.91-.72-.24-.22-.52-.09-.44-.22-.02-.59.24-.11,1.14-.1.87.53.62-.45.07-.83-.49-.61-1.24-.47ZM76.23,49.1l.79-.68.29-1-.41-.47-.82-.13h-.88s-.84-.5-.84-.5l-.72-.18-.63.17-.55.53-.51,1.56-.1.19.18.61h.43s.5-.28.5-.28l.41-.16,1.86.4.98-.06ZM4.72,44.31l-.33-.04-.23.18-.48.5-.75.6-.13.44.36.46.15.28v.07s0,.15,0,.15l.12-.04.23-.24.29-.11.35.03.33-.18.18-.49.14-.58.2-.51-.06-.35-.36-.18ZM79.02,54.35l-.09-.54-.43-.49-.56-.44-.61-.52-.28-.32-.21-.37-.05-.2-.14-1.03-.07-.24-.11-.17-.17-.09-.26.06-.25.21-.22.29-.14.27-.25,1.06-.19.45-.39.36,3.03,2.36.9-.06.47-.61ZM143.26,62.54l-.66-.57-1.06-.12-1.09-.41-1.5-.2-2.51-1.39-1.13-.46-1.12-.74-1.23-.19-1.2.38-.99-.84.08-.91.47-.96.18-1.11v-1.14s-1.17.38-1.17.38l-.53-.69,1.3-1.53-.22-1.02-.36-1.01.26-.77v-.92s-.1-.87-.1-.87l2.27-1.67.92-.3.51-.79.23-2.29-1.06-1.62-.87-.18-.83-.38-.62-1.67-.99-.05-1.06.07-1.15-.84-.55-1.5-.23-2.67-.43-1.34-.3-.26-.35.06-.24.23-.3.04-.76-.54-1.86.66-1.71-.42-.69-.42-.71-.64-.02-1.07.35-1.01.25-.38.18-.37-.3-.25-.38-.09-.36.08-.31.24-.59.77-.66.67-1.02.17-.9-.61-.17-.55-.07-.56-.32-.2-.34.36-.12.58v1.87s-.59.91-.59.91l-1.64-.78-1.5-1.36-.53-.55-.55.07-.49-.72-.31-.94-.41-.49-.48-.39-.37-.89-.66-.42-1.57-1-.88-.43-.55.7-.61,1.51-.91,2.25-.74.85-1.72,1.34-.78.79-3.81,5.84-1.78,1.42-1.15.44-.83.09-.54.39-.24,1.35.31,4.86h0s.68-.46.68-.46l.44-.06.33.42-.47.9-.2,1.13.05.65h0s.04.48.04.48l.42.88.19.85-.22,1.2-.75,2,2.57,1.86.84.87-1.08-.07-1.74-.73-1.37-1.15.02-1.32.24-.73.07-1.07-.09-1.04-.22-.67-.6-.4-.58.11-.65.31-.78.17-2.46-.88-.59.11-.17.76.64,4.64.48,1.78.18,1.14v.76s.52.5.52.5l.46.79.4.65.35.83.22.5,2.03-.07,2.29-.08,2.63,2.53v1.33s.48,1.1.48,1.1l.72.47.42.7-.42,1.39-.64,1.23-.59.43-.33.25-1.41.41-.59.59-.87,1.26.1.65,1.94,1.48,1.4.44.85.17.54.03.54-.17.67.12.28.43.62-.02.42.12.35.23.27.34.21.46-.98.14-.7-.42-.62-.09-.75,1.13-.22,1.2-.22.53-.47.18-.43-.21-.22-.47-.05-.61.05-.63-.69.34-.58-.19-.59-.37-.71-.2-.87.22-.49.03-.33-.25-.28.27-.13.09-.2.06.36.7.3.75.31.6.4.24,1.2-.17.14.19-.54.74-.45.25-.62.21-.54.32-.24.57.14.77.41.13,1.3-.3-.66.93-.27.5-.02.52.29.29.48.02.52-.18.41-.33,1.59-1.73.86-.62,1.06-.54v.68s.23.44.23.44l.43.25.58.12.93-.8.62-.34.28.2-.07,1.04-.25.37-1.21.33-1.13.02-.76.29-.71.34-.62.85-.52.95.09.96-.16.75.19.56v.63s2.04.62,2.04.62l.86-.22.85-.18.42.42.43-.23.21-.98.08-.9.24-.89.39-.52.51.23-.33,1.48.44,1.09.61.95.19,1.06-.39-.3-.44-.15-.48-.03-.5.07.42.32.19.09v.35l-2.67.29.6,1.49,1.58,1.56,1.75,1.03,1.48.21,1.04-.34.32-.39-.14-1.73.4-.57,2.67-.75-.12.65-.29.2-.4.06-.62.35h-.23s-.24.02-.24.02l-.24.23.08.12.41.44.09.24-.31,1.35-.48.55-.67.32-.57.44h.01s2.08.43,2.08.43h1.75s3.71-1.59,3.71-1.59l1.93.88,1.73,1.45,2.11.29,2-.59,1.9-.91,1.49-.5.4-1.64.73-.79,1.14-.5.54-.7.37-.93.69-.74.87.18.25.34,1.12-.78,2.13-3.97.22-.48.26-.44.35-.28.36-.25.36-.54.31-.6,2.42-4.49,1.98-4.88,2.75-5.88.34-1.26-.26-1.26.59-1.02.83-1.01.89-.37.47-1-.51-.87ZM115.24,62.29l-.62.32-.68.45v1.02s.37.4.37.4l-.77,1.05-.42.74-1.16.69-1.27.3-1.31.66-.51-1.18-1.12.26-1.11.35-.78.45-.82.13-1.92-.07-1.31-1.72-1.29-.39-.89-.59-.24-1.62-.89-1.26-1.06-1.29.67-1.44,1.25.08,1.43.87,1.06-.36.95-.58.07-.97.26-.89,2-.19,1.03-1.31.63-1.33.89-.95,1.39-.33,1.61.13.77,1.32.3,1.79.47,1.25.03,1.38-.41,1.59h1.22s1.05-.39,1.05-.39h.91s.34.81.34.81l-.12.84ZM89.43,77.64l-.24-.24-.85-.36-.52-.3-.19-.44.13-.49-.14-.05-.63.55-.73-.36-.1.11.32.37.33.58.24.83-.02.67-.58.66.2.33-.07.38-.49.66v.28s1.02-.13,1.02-.13l2.28-1.82.24-.52-.11-.48-.11-.26ZM86.08,56.25l-.25-.6-.25-.3.15-.47-.15-2.03-.09-.42-.41-.76-.1-.38.05-.34.23-.76.05-.45-.23-.91-.57-.57-1.44-.72-.68-.62-.67-.8-.71-.52-.81.21-1.05,1.23-.43.16-.19.61.04,2.67-.16.61.1.46,1.59,3.04.23.31.25.17.05.27-.38.59-.33.22-1.37.36.92,1.23.87.41,2.35-.13.17-.11.19-.19.24-.08.34.21.47.51.27.12.34-.04.45-.39.5-1.19.58-.35-.14-.25ZM83.63,76.3l-1.02-.09-.79.42-.37.51-.08.73.1.71.29.18.37-.04.35.26.51-.12.39-.46.04-.34.19-.37.48-.16.2-.23-.17-.68-.46-.31Z"/>
    </g>
    <path id="Gwangju" class="cls-2" d="M64.83,199.09l.11.12.16.12.43-.07,1.19.32.24-.06.16-.44.38-.57.5-.49.48-.2-.6-.97-.2-.56.04-.55.31-.46,1.36-.79-.68-.18-.92.22-.81.52-.34.74-.22.35-.49.24-.53.18-.31.18-.24.51-.35,1.73.2.03.12.09ZM63.42,209.44l.38.14.29.25.37.14.64-.19.52-.45.34-.65.14-.76-.11-.78-.35-.61-.5-.34-.44.11-.19.72-.17.33h-.37s-.43-.11-.43-.11l-.29-.02-.61.56-.8,1.28-.44.39v.34h.55s1.46-.34,1.46-.34ZM37.28,219.25h-.38s-.15-.38-.15-.38l-.2-.16-.37.07-.37.28-.32.51-.3.58-.25.66-.05.72.29.78.44.18.18-.2.23-.32.29-.49.14-.38.7-.82.12-.31.21-.25.39-.39-.09-.22-.51.13ZM22.83,251.97l-.39-.49-.49-.17-.34.32-.22.57.11.42.5.31.87.8.22.14.1.05.2.04.14-.24-.04-.43-.64-1.32ZM63.72,225.71l.47-.03.4-.14.12-.64-.37-.76-.48-.7-.57-1.25-.37.48-.16,1.05.17,1.88.36.3.43-.2ZM62.07,218.39l-.53-.48-.38-.7-.17-.11-.28.14-.81,1.11-1.32.53-.31.42.4.91.2-.07.7.3.65.38v.17s.46.04.46.04l.31-.03.31-.23.68-.91.19-.4.1-.43-.06-.42-.14-.23ZM62.22,213.89l-.16-.16-.21-.04-.3.04-1.46.56-.8.17-.61-.23-.55.21-.49.32-.36.48-.13.68.08.72.23.58.39.36.52.06.53-.24.39-.48.24-.64.09-.73.25-.14.56.12h.61s.39-.52.39-.52l.23.13.51.14.21.09-.02-1.15-.12-.34ZM69.11,197.17l.48,1.12.24.3.25.13.19.18.19.04.39.04.25.22,1.14.19.31.09-.08.27v.48s.17.32.17.32l.22.28.52.12.12.17.17-.14.17-.53-.08-.42-.23-.31-.13-.48-.27-.38-.47-.03-.41-.19-.49-.51v-.29l.17-.2.41-.03.31-.31-.11-.36-.28.08h-.22s-.09-.23-.09-.23l-.28-.14-.43.23-.38.13-.42-.28-.52-.19-.57.19-.27.44ZM70.14,200.19l-.04-.28-.11-.24-.19-.26-.4-.11-.57.05-.39-.18-.29.04-.35.23-.08.25.19.06.2-.04.13.07-.32.25.06.12h.22s.17.08.17.08l.07.24.21.02.24-.12.18.12.4.44.24.09.23-.13.19-.17v-.53ZM66.63,210.3l-.43-.24-.53.06-.65.33-.13.43.31.57.37.52.67.76-.02.22.1.32.4.03.48-.27.15-.52v-.61s.27-.32.27-.32l.44.02.32-.2.11-.51-.22-.85.6-.39-.05-.34-.21-.31-.22-.12-.28.03h-.58s-.43.41-.43.41l.09.64-.12.33h-.41ZM65.98,239.87l-.3-.15-.64.1-1.54-.32-.33.22-.02.27-.19.26.03.29.31.45.92.38.28-.04.08-.27h.15s.19.28.19.28l.2.09.25-.21.43-.05.21-.31-.07-.39.04-.6ZM75.09,208.81l-.56.17-.04.23-.15.15-.16.2-.91.33-.71.05-.24.29.27.35.53.18.66-.11.58-.29,1.32-.21.19.1,1.25.69.12.22-.14.31-.28.32.48.18.88-.81-.09-1.15-.85-.3h-.63s-.29-.1-.29-.1l-.06-.25-.03-.32.08-.25.68-.45.39-.05.06-.32-.57-.57-.8-.4-.77-.19-.49.25.15.54.35.48-.02.4-.2.34ZM69.55,213.61l-.11-.23-.32-.44-.43-.19-.34.28-.65.28-1.11.18-.44.37.55.32.75.28.58.5.52.3.53-.14.27-.29-.09-.73.15-.35.14-.14ZM66.19,216.22l.41.75.08.46.32.23.33-.03.16-.08.24-.21h.48s.41.61.41.61l.52.52.57-.06.26-.52-.02-.58-.15-.48-.04-.36.03-.27-.16-.3-.3-.27-.44-.11-.53-.04-.39-.2-.27-.29-.42-.19-.56-.09-.48.05-.33.17h-.35s-.43-.12-.43-.12l.19.45.88.93ZM73.02,206.87l.17-.14.15-.56v-.23s-.27-.11-.27-.11h-.76l-.35.19-.09.52.22.49.54.02.4-.17ZM120.73,255.63l-.26-.23-.57-.94-.08-.56.15-.5-.11-.23-.07.02-.12.14-.21.07-.16-.05-.14.05-.03.22.02.25-.07.22.11.37.14.17.17.12.1.45.15.37.11.17.61.14.63.31.05-.27-.12-.18-.32-.09ZM116.51,230.25l-.73-.06-1.4.17-1.46.27-.71.29-.62.46.42.28.17.24-.04.25-.24.3v.4l1.07.72.52.26.71.1,1.84-.34.82-.34.59-.82.15-1.01-.49-.88-.61-.3ZM110.75,237.87l-.27-.35-.15-.25-.21-.18-.45.05-.61.19-.35-.15-.17-.49-.29-.44-.32-.31-.14-.05.04.14-.44.37-.41.5-.26.18-.33.07-.11.1.13.09.29.1.75.07.3.18.11.27-.13.22.98.2.16.22-.28.19-.22.34.04.48.46-.21.79-.62.32-.32-.27-.16-.12-.15.32-.13.44.1.38.19.27-.06-.09-.25-.15-.13ZM141.62,229.1l-.36-.07-.02-.19.08-.38-.68-1.32-.58-.43-.82.11-.75.36-.24.46.32.38.37.2.22.34.2.46.44.34.65.22.41.23.15.22.09.09.36-.02.56-.19.1-.34-.2-.31-.29-.16ZM129.43,231.1l-.41.02-.4.4-.21.05v-.14s-.64-.16-.64-.16l-.33-.19-.32-.14-.22.12.08.24.03.3-.16.41.3.22.49.31-.12.22.21.28.45.15.3.32.02.46.25.15.71-.22.81-.53.34-.36v-.32l-.2-.54-.98-1.05ZM142.49,204.4v-1.01s-.6-1.48-.6-1.48l-2.78-3.03-.48-1.01-.39-1.15-1-1.05-1.1-.8-.6-1.09-.19-2.9-.45-1.4-.92-1.08.24-1.19-2.55-2.06-2.86-1.03-1.62.9-1.3,1.4-1.4.2h-1.48s-1.62.23-1.62.23l-1.64-.03-.76-.45-.68-.52-.78.2h-.93s-1.35.21-1.35.21l-1.28.77-1.66-.25-1.07-1.15.06-1.81-.91-1.03-.27-1.02.4-1.58-.9-1.37-1.31.07-.32.56-.44.42-.29.72-.11.78-1.38.02-2.09-2.84-1.37-1.12-.78-.33-.81-.06-.74.88-1.51-.15-1.12,1.01v.74s.04.74.04.74l-.41.62-.56.41.03.58.09.56-.37.78-.59.51-.73.35-.77.22-.65.39-.6.44-1.5.22-1.42.51-1.33.33-1.11-.37.06-1.48.29-1.47.26-2-1.29-.35-4.34,1.21-.92.3h0s.86.98.86.98l.11.4-.4.03-.79-.24-.65-.85-.26-.27-.98,1.5-.39.84-.15.85.08.38.14.34.07.36-.15.41-.29.32-.29.22-.26.29-.22.49.35.07.16.11.14.12.27.1-.81.2-.93.05-.82.19-.5.62,1.27-.02.59-.1.57-.23-.09.76.23.43.47.33-.1.5-.21.3-.21.22-.1.27.34.79,1.46,1.71.46,1.23.29.3.36.2.84.21.22.35.02.97-.12.87-1.13,2.55-.48-.49-.32-.56-.07-.6.26-.62-.34-.19-.75-.03-.43-.15-.53-.32-.16-.18-.04-.31-.18-.72-.14-.09-.21.08h-.18l-.09-.32.05-.32.2-.51.12-1.01-.06-.52-.32-.62-.36,1.25-.32.63-.57.36-.36-.86-.81-.42-.91.12-.64.75.16.91,1.15,1.53-.42.58.63.83.63-.02.31-.7-.35-1.23.85.29.78.72,1.27,1.76.33,1.14-1.25,1.24.13,1.17-1.12-.24-.5-.03-.51.26.22.49.28.41.33.34.39.28-.19.08-.43.29.56.37.78.25.81-.06.62-.57v-.51s-.23-.63-.23-.63l-.07-.53.44-.22.34-.12.24-.27.3-.26.51-.09,1.12.27-.26.48-.84.58-.62.57-.09.9.27,1.07.49.91.56.44-.58.51-.15.4.12.81-.02.42-.08.37-.19.39-.33.5-.91.91-.32.54.15.58.47.24.96-.32h.61s.07-.55.07-.55l.38-.18,1.19.27.59-.18.39-.35.41-.18.61.31-.19.29-.24.57-.18.29.28.21v.13l.89-.08.47-.63.5-1.85.53-1.07.08-.07-.07-.49-.29-.92.05-.45.49-.68.66-.31.61.19.36.8v.56s-.21.33-.21.33l-.24.27-.16.36v.57l.12.37.06.36-.17.53,2.32-.21,1.01.19.66.77-.47-.02-.37.08-.69.35.32.69-1.05-.08-2.05-.61-1.09.27-.53.7-.09.96.2,1.05-.21-.08-.12-.1-.11-.11-.17-.12-.69.13-2.04-1.51-1.7.76-1.33-.21-.63.26-.64.8.14.52,1.03.34,1.12-.3.91.59,1.32-.09,1.11.22.81.38,1.46,1.87.97.71-.33.4,1.34,1.18.76.48.94.16-.93.24-1.29-.41-1.06-.58-.83-.48-.56.12.93,1.24-.19.24-.47-.31-.62-.45-.48-.47-.8-.32-.58-.38-.27-.37-.46-.3-.11-.33.02-.21v-.22s.11-.71.11-.71l-.24-.43-1.87-.41-1.22.12.26.95-.34.77.14,1.36.28,1.01.46-.04.28-.77.59-.11-.16,1.25.57.57.43.68.92.2.27.13.5-.08-.36.94-.51.05-.95-.66-2.21-.37-.56-.33-.92-2.59-.15-.6-.08-.55.13-.54.43-.56-1.36-2.04-.29-.65-.26-.18-.35-.1-.33-.03-.36.18-.07.42.04.5-.05.41-.47,1.21-.39,1.74.08,1.56.93.68,1.2.59.19.56-.32.26h-.45s-.18-.26-.18-.26l-.17.3-.18.07-.08.16.15.55.12.06.93.89.28.11.36-.07.32-.18.13-.21.13-.35.27.26.22.44v.17s1.05.52,1.05.52l.38.5.08.86.66-.26.52-.09.96-.02.44.07h.38s.4-.07.4-.07l.15-.49.19-.37.27-.25h.3s.58.37.58.37h.37s.28-.19.28-.19l.4-.5.2-.08.54.3v.51s-.45.58-.45.58l-.7.49.42.15.35.22.28.32.2.42-1.11.03-1.19.23-.89.66-.2,1.31.72-.24.08.36-.17.67-.02.69-.1.08-.13.27.07.29.48.13.66.08.33.11.22.18.17.55-.12.55-.63,1.15-.19.13-.2-.07-.15.03-.09.85-.08.22-.24.31v.34l1.17-.06.56.11.41.35.08.61-.42,1.3.06.64.52.11,2.06-.68,1.09.23v-.62l.09-.52,1.09-3.65.18-.35.5-.42,1.32-.33.35-.24.23-.54v-.4s.13-.25.13-.25l.59-.09.22.06.41.25.27.06.15-.12.05-.26-.04-.26-.15-.12-.66-.26.64-.59,1.71-.99-1-1.27-.18-.66,1.38-.46v-.46s-.3-.65-.3-.65l-.18-.75.15-.52.37-.59.49-.46.48-.14.51.38.29.73.05.83-.25.68.17,1.06-.19,2.74.35,1.04.39.24,1.71.5,1.25.89.58.18-.25-.63-.02-.58.19-.53.39-.47,1.19.59.42-.37-.08-2.24,2.46-2.43-.33-.71.21-.58.41-.49.29-.45.08-.63-.02-.6.08-.45.34-.17.55-.14.57-.33.88-.67,1.63-.96.36-.3.81-1.07.49-.45.53-.19,1.12.23.54.03.64-.26.62-.76.9-2.32.63-1,1.1,1.78.81.67.97-.41.85-.66.32.44.24.97.62.93-.35.57-.61,1.31-.29.38-.69.26-.51-.17-.38-.49-.27-.71.24-.52-.08-.42-.31-.33-.47-.25-1.29,1.43-.24.43.04.82.27.42.35.36.26.63v1.6s-.64.9-.64.9l-1.09.4-1.31.09.65-1.58.22-.88.04-.91-.65.32-.32.4-.56,1.17-.9,1.19-.32.28-.99.59-.28.46.05.8.41.78.6.32.7.14.73.25-.13-.22-.18-.56,1.77-.93.51-.12,1.67,1.81.63,1.29,1.82,2.41h1.24s-.57-.63-.57-.63l-.13-.94,1.29-.98.82.38.75-1.07,2.12-1.95-.93-.79-1.7.44-.38-.25-.63-.14-.53-1.12-.11-.17.26-.41.61-.44.72-.33.58-.11.65.21,2.03,1.27.55-.14.87.04.46-.39.41-.41-.13-1.13-.25-.6-1.92-.74.33-.07h.78s.46.07.46.07l-.96-1.37-1.4-.9-1.29-1.16-.62-2.16.12-.15.24-.06.09-.19-.32-.52-.45-.19-.84.34-.38-.31.16-.74.96-.54,1.9-.61v-.34l-.95-.28-1.15-.5-.59-.48.73-.22,1.93.05.89-.11,1.52-.54.23-.03.15-.11.29-.41.76-1.94.15-.12.1-.23.21.07.21.24.1.31-.04.28-.2.53-.04.32.12.53.68,1.43-.13.21-.08.33.02.28.22.23.26.04h.25s.19.13.19.13l.71,1.53.36.51.21.92-.42,1.07-.58,1.13-.27,1.15.22,1.21.51.8.8.44,1.07.13.73.77.46.26.2-.45-.33-2.42-.26-.76-.35-.72.22-.06.06-.1.07-.02.26.17.82-1.79,1,.21,1.24.62,1.57-.53.37-.63.51-2.71.44-1.54.15-.76.05-1.07-.84.45-.76-.05-.82-.16-.96.13-1.38,1.3-.56.35-.47-.23-.5-.65-.71-.46-.79-1.08-.69-1.24-.41-.96-.05-.91.24-1.09.49-.7.7.28.84,1.72.67.58.94-.42,1.69-1.35.41-.48.18-.34.32-1-.1-.29-.08-.65.12-.42.51.41.26.53.11.41.24.28.6.1,1.81-.02.29.08-.11-.24ZM105.17,194.12l-2.75-.44-2.43-1.46-1.22-2.69.96-.91,1.6.43,1.17-.27,1.22-.37,2.3.86.9,2.5-1.76,2.35ZM66.68,224.61l-.08-.28-.1-.1-.03-.47-.55-.31-.32-.34-.54-.44-.34.25.28.91.45.72.22.54-.22.53-.51.39-.65.02-.62.09-.24.29.99.22.04.19-.27.2-.23.23h-.27s-.26.1-.26.1l.16.28.52.15.49-.07.88-.52.37-.35.36-.27.25-.27.04-.52.14-.6.04-.56ZM102.62,245.82l-.45-.65-.76-.2-.64.31-.32.3-.17.41-.07.51-.28.56.18.83.17.1.15-.27.29-.04.4.36.49.25.66-.06.52-.28.28-.5.11-.29.12-.68-.27-.3-.43-.39ZM88.76,247.39l-.25-.07h-.5s-.37.11-.37.11l-.26-.03-.88-.56h-.68l-.79.55-.39.8.03.82.48.63.85.04.67-.41.44-.4.5-.34.15-.29.24-.23h.42s.41.21.41.21l.17.07.08-.21.16.03.19.17.11-.24-.37-.47-.39-.16ZM77.66,227.41l-.04-.47-1.01.64-.2.07-.3-.24-.21-.37-.13-.34-.11-.15-.48-.25-.64-.51-.74-.4-.72.05-.3.45,1.15.91.34.68-.27.82-.63.42-.71-.07-.52-.64-.12.77-.32.24-.43.07-.48.26-.41.46-.26.42-.4,1.17-1.25.09-1.27,1.46-.56,1.81.94,1.11v-1.14l1.29.81.24.33-.13.28-.33.33-.25.4.1.47.52.13,1.88-.16.51-.18,4.25-2.32.18-.87v-.34l.35.22.76.72.08.17.44-.3.36-.57.88-1.89.24-.81.12-.83-.07-.74-1.33-2.15ZM100.14,239.84l.23-.2.41-.08.39.07.28-.31.04-.38.07-.18.26-.3.09-.4-.39-.23-.63-.15-.5-.05-.19.04h-.19s-.32-.07-.32-.07l-.26-.2-.45.11-.6.49-.49.21-.41-.19-.35-.05-.16.08-.2.11-.45.13-.46.06.06.18.99.44.17.11.17.09h.43s.53-.18.53-.18l.46-.07.35.15.24.33.09.42.22.31.4-.08.19-.2ZM89.35,244.72l-.23-.17-.48-.25-.93-.16-.35-.19-.35-.11-.15.13.23.38.03.15-.11.12-.16.08-.04.12.09.13-.02.16-.13.24-.23.65.04.18.21.04.19.07.09.22.35.33.68.18.23-.19-.22-.39.36-.07.65-.04.16-.61.31-.26-.04-.47-.18-.26ZM92.03,248.22l-.45-.67.08-.41.42-.37-.11-.53-.76-.39h-.38s-.02.18-.02.18l-.37.36.09.25.29.27-.1.69-.28,1.24.1.72.23.05.21.17.08.25.23.14.44-.12.23-.42v-.54l.07-.32.2-.03.14-.16-.15-.26-.18-.1ZM99.53,233.15l-.21-.32-.56-.1-.93.22-.88.49-.63.83-.31.68-.21.32-.16.32.2.2.22.02.21.16.09.47v.56s.28.34.28.34l.24-.17.13-.58.41-.56,1.18-.55.23-.33.38-.09.92.28.33-.05-.04-.33-.3-.43-.34-.38-.41-.25-.04-.13.23-.24-.04-.36ZM96.13,239.8l-.82-.81-.14-.46-.24-.33-.14-.4-.12-.86-.41-1.04-.53-.63-.48-.33-.51-.17-.78.08-.26.06-.48.23-.35.52-.18.68-.04.68.04.67.13.59.31.4.52.34.58.16.47-.12.39.1.11.4-.41.32v.35s.85.29.85.29l.68.16.39.18.21-.13.04-.32.19-.04.34.22.4.17.22.06.22.03.15-.15-.25-.6-.09-.33Z"/>
    <polygon id="Gangwon-do" class="cls-3" points="172.49 11.44 176.44 19.25 179.51 27.43 180.01 28.32 181.61 30.3 182.23 31.97 189.67 42.62 192.56 46.83 196.02 50.67 196.51 51.07 198.82 53.8 198.94 54.96 198.96 56.34 199.23 57.52 200.81 58.4 201.27 59.34 202.57 63.59 203.16 64.58 203.85 65 204.44 65.6 206.47 69.6 207.69 71.14 208.11 71.99 208.28 72.88 208.58 73.75 210.74 76.12 211.43 78.07 212.04 82.31 212.87 84.65 215.16 87.84 215.34 88.51 215.08 89.15 214.66 89.77 214.4 90.37 214.38 90.92 214.71 92.67 215.1 97.66 215.51 99.96 216.99 104.66 217.11 106.96 216.65 109.08 215.64 111.01 214.83 113.3 214.38 113.28 212.89 112.94 211.46 113.57 208.37 112.43 208.86 111.11 208.72 109.87 208.33 108.49 208.21 106.93 208.8 105.45 209.28 104.05 208.93 103.63 208.55 103.27 208.73 102 205.46 101.76 204.5 101.21 203.48 100.77 203.06 99.74 202.73 98.56 201.26 97.86 200.34 96.47 200.14 94.66 200.46 93.27 201.22 92.69 202.06 92.38 203.36 92.9 204.42 92.1 203.98 90.82 202.59 89.97 201.06 89.62 199.85 90.26 198.68 90.55 197.03 89.8 195.28 89.5 194.69 89.74 194.21 89.68 193.83 89.18 193.28 88.95 192.01 89.94 190.68 90.47 190.57 89.49 190.68 88.51 189.91 88.13 189.05 87.93 188.42 86.83 187.2 86.73 185.99 87.3 185.17 88.29 185.47 89.67 185.33 90.95 185.06 92.15 183.92 92.04 182.59 91.75 181.49 91.29 180.34 90.68 179.45 90.1 178.54 89.71 177.41 89.58 176.25 89.35 175.07 88.58 174.01 87.78 172.94 87.79 171.87 88.13 170.91 88.3 170.1 88.36 169.77 87.63 168.89 86.7 168.96 85.91 168.52 85.42 166.39 85.66 165.04 86.11 164.63 86.3 164.24 86.3 163.6 85.95 163.11 85.39 163.88 84.2 165.17 83.29 165.68 82.11 164.88 81.87 162.33 81.46 159.84 80.57 158.81 81.37 157.93 81.84 156.86 81.61 155.97 82.3 154.49 83.13 153.01 83.49 152.46 82.71 152.46 81.51 150.76 79.71 148.48 80.48 147.64 81.51 147.88 84.24 146.98 84.86 146.68 85.22 146.33 85.53 145.95 85.35 145.57 85.11 144.2 85.01 142.85 85.34 143.23 82.63 138.48 83.28 133.77 84.58 136.19 80.09 138.17 75.21 140.92 69.33 141.27 68.07 141.01 66.8 141.59 65.78 142.42 64.77 143.31 64.41 143.77 63.4 143.26 62.54 142.6 61.97 141.54 61.85 140.45 61.44 138.94 61.24 136.43 59.84 135.3 59.38 134.18 58.64 132.95 58.45 131.76 58.83 130.76 57.99 130.84 57.08 131.31 56.12 131.5 55.01 131.51 53.87 130.33 54.25 129.8 53.56 131.1 52.03 130.88 51.01 130.52 50 130.78 49.23 130.77 48.31 130.68 47.44 132.95 45.76 133.86 45.46 134.38 44.67 134.61 42.38 133.55 40.76 132.68 40.58 131.86 40.2 131.23 38.53 130.25 38.48 129.19 38.55 128.04 37.7 127.49 36.2 127.26 33.54 126.83 32.19 126.53 31.93 126.18 31.99 125.95 32.22 125.65 32.26 124.89 31.73 123.03 32.39 121.31 31.97 120.62 31.55 119.92 30.91 119.89 29.84 120.24 28.83 120.49 28.45 120.67 28.08 120.38 27.83 120 27.74 119.64 27.82 119.32 28.06 118.73 28.83 118.07 29.5 117.06 29.67 116.16 29.06 116 28.51 115.93 27.95 115.61 27.75 115.26 28.11 115.15 28.69 115.14 30.55 114.56 31.47 112.92 30.69 111.42 29.33 110.89 28.78 110.34 28.85 109.85 28.13 109.54 27.19 109.13 26.7 108.65 26.31 108.27 25.42 107.61 25 106.04 24 105.15 23.56 105.41 23.23 107.86 21.21 110.71 19.42 113.7 18.21 116.58 17.89 118 18.05 123.5 17.56 127.74 18.85 129.08 18.73 131.7 17.93 140.32 17.17 140.68 17.42 141.25 18.25 141.8 18.81 142.42 18.96 145.37 18.34 150.05 18.62 153.09 18.37 156.16 17.28 159.01 15.43 161.38 12.94 162.42 11.46 163.28 9.87 163.86 8.12 164.06 6.09 163.68 4.14 163.58 3.14 163.86 2.41 165.08 1.44 167.6 .12 168.94 2.77 168.94 2.77 171.02 6.89 171.43 8.7 172.49 11.44"/>
    <g id="Daegu">
      <path class="cls-4" d="M221.63,144.45l-.16-.95-.74-.59-.55.92-2.84,3.11-1.15.9-.91-.16-.71-.87-.68-.76-.94-.87.04-.76.74-.62.44-.14.47-.22.36-.49.17-.86-.24-.31-.36-.25-.33-1.44-.26-1.88-.24-.28-.3-.2-.27-.5-.15-.91.19-6.69.24-1.1.54-.94,1.38-1.67.27-1.02.28-4.74-.24-2.3-.61-2.28-.23-2.19v-.09s-.46-.02-.46-.02l-1.49-.34-1.43.63-3.09-1.14.49-1.32-.14-1.24-.39-1.38-.12-1.56.6-1.48.48-1.4-.35-.41-.38-.36.18-1.27-3.27-.24-.96-.55-1.02-.44-.42-1.03-.33-1.19-1.47-.7-.92-1.39-.2-1.81.32-1.39.76-.58.84-.31,1.3.52,1.06-.79-.43-1.29-1.39-.84-1.53-.36-1.21.64-1.17.3-1.65-.76-1.75-.29-.59.24-.49-.06-.38-.51-.54-.23-1.27.99-1.34.53-.1-.98.11-.97-.78-.39-.86-.2-.63-1.1-1.22-.1-1.21.57-.81.99.3,1.38-.14,1.28-.26,1.19-1.14-.11-1.33-.29-1.1-.46-1.14-.61-.54.62-.6.35-.53-.21-.43.28-1.03,1.09-1.14.95-.74.72-.92.29-.55.46-.39.71-1.38.98-.98,1.41-.47,1.05-.57,1.04.31.55.59.54-.66,2.19-3.74,1.57-1.59-.52-.66-1.35-1.05-.91-.74-.53-.58-.65-.58.57-.47.74-.22.87-.31.92-1.29-.1-1.38-.49-.72-.47-.76.49-.73.99-.89.08-.72-.47-.54.92-.56,1.22-.3,1.14.85,1.1.65,1.25-3.17-.5-1.7-.74-.97,1.45-1.56.74-1.39.94-.12.66.03.52-.25.57-1.01,1.35-.65.69-.66.12-.66.31.5,1.27,1.75.3,2.19,3.18-.81.79-.44,1.27-.18,3.02-.27,1.33.28.96.49.88-.64,1.28-.99.85.27,2.63,1.8-.42,1.08.35,1.26,1.06.87.41,2.28-.55,1.01.75.51,2.88-.95-.06-1.07-.2-1.08.93.25,1.49v.76s-.09.91-.09.91l-.43.52-.35.62-.37,1.42-.69,1.35-1.12.38-1.08.53,1.83,3.12-.21,3.51.36,1.22.9.53.42.31.41.35.04.44.18.45.36.16.36.12,1.35.11.59.49.72.49,1.28.1h1.26s1.15.38,1.15.38l.85.92.6,1.13.99.7.25.51.15.47.69.43.6.7-.03,1.3-.54,1.24.7,2.54,2.75.12,1.35-.19,1.29.22,1.21.58,1.14.86,1.27.26,2.39-1.23,1.22.25,1.1-1.57,1.03-.8.37,3.04,1.13,1.38,1.4.89,1.62-.18,1.67-.3,1.46.45,1.39.73,1.67.05,1.45-1.15.64-.24.65-.09.61-.53.51-.66,1.61-.66,1.72.43,1.32.62,1.25-.42,1.08-.87,1.15-.67.69-.02.28-.54-.43-.71-.24-.77,1.5-1.17,1.89-.66,1.55-.23,1.51.32,1.57.68.41.68.02.82.11.73.55.4.75.19,4.15-.75,3.53.87h.04s-.34-.42-.34-.42l-.37-.98.38-.86.87-1.73,1.18-3.55-.06-2.05,1.16-3.27.48-3.77.12-1.43,1.61-3.2.7-1.09-.23-1.1-.32-.99ZM185.11,155.08l-.7.72-.34-.1-.42.04.02.36-.06.47-.42,1.1v.36s-.14.52-.14.52l-1,.6-2.58-.67-1.44-.15-.64.5-.64,1.11-.34.29-.41-.34-.55-.36-.79-.64-.53-1.03-.65-.64-.69-.27-.27-1.02.62-.86h.67s.72-.12.72-.12l.19-.52.08-.55-.39-.15-.42-.07.48-1.08.77-.84-.28-2.51,2.1-1.74,2.84-.38,2.36-.15,1.79,1.31.57.99-.02.44-.22.37v1.39s.37.54.37.54l.48.41.09.87.02.93-.24.87ZM280.94,61.3l-.53.11-1.06.39-1.59.27-.8.54-.38.86.23,1.15.73.89,1.1.66,1.14.22.85-.43.52-1.06.49-1.59.05-1.43-.76-.58Z"/>
      <path class="cls-1" d="M221.63,144.45l-.16-.95-.74-.59-.55.92-2.84,3.11-1.15.9-.91-.16-.71-.87-.68-.76-.94-.87.04-.76.74-.62.44-.14.47-.22.36-.49.17-.86-.24-.31-.36-.25-.33-1.44-.26-1.88-.24-.28-.3-.2-.27-.5-.15-.91.19-6.69.24-1.1.54-.94,1.38-1.67.27-1.02.28-4.74-.24-2.3-.61-2.28-.23-2.19v-.09s-.46-.02-.46-.02l-1.49-.34-1.43.63-3.09-1.14.49-1.32-.14-1.24-.39-1.38-.12-1.56.6-1.48.48-1.4-.35-.41-.38-.36.18-1.27-3.27-.24-.96-.55-1.02-.44-.42-1.03-.33-1.19-1.47-.7-.92-1.39-.2-1.81.32-1.39.76-.58.84-.31,1.3.52,1.06-.79-.43-1.29-1.39-.84-1.53-.36-1.21.64-1.17.3-1.65-.76-1.75-.29-.59.24-.49-.06-.38-.51-.54-.23-1.27.99-1.34.53-.1-.98.11-.97-.78-.39-.86-.2-.63-1.1-1.22-.1-1.21.57-.81.99.3,1.38-.14,1.28-.26,1.19-1.14-.11-1.33-.29-1.1-.46-1.14-.61-.54.62-.6.35-.53-.21-.43.28-1.03,1.09-1.14.95-.74.72-.92.29-.55.46-.39.71-1.38.98-.98,1.41-.47,1.05-.57,1.04.31.55.59.54-.66,2.19-3.74,1.57-1.59-.52-.66-1.35-1.05-.91-.74-.53-.58-.65-.58.57-.47.74-.22.87-.31.92-1.29-.1-1.38-.49-.72-.47-.76.49-.73.99-.89.08-.72-.47-.54.92-.56,1.22-.3,1.14.85,1.1.65,1.25-3.17-.5-1.7-.74-.97,1.45-1.56.74-1.39.94-.12.66.03.52-.25.57-1.01,1.35-.65.69-.66.12-.66.31.5,1.27,1.75.3,2.19,3.18-.81.79-.44,1.27-.18,3.02-.27,1.33.28.96.49.88-.64,1.28-.99.85.27,2.63,1.8-.42,1.08.35,1.26,1.06.87.41,2.28-.55,1.01.75.51,2.88-.95-.06-1.07-.2-1.08.93.25,1.49v.76s-.09.91-.09.91l-.43.52-.35.62-.37,1.42-.69,1.35-1.12.38-1.08.53,1.83,3.12-.21,3.51.36,1.22.9.53.42.31.41.35.04.44.18.45.36.16.36.12,1.35.11.59.49.72.49,1.28.1h1.26s1.15.38,1.15.38l.85.92.6,1.13.99.7.25.51.15.47.69.43.6.7-.03,1.3-.54,1.24.7,2.54,2.75.12,1.35-.19,1.29.22,1.21.58,1.14.86,1.27.26,2.39-1.23,1.22.25,1.1-1.57,1.03-.8.37,3.04,1.13,1.38,1.4.89,1.62-.18,1.67-.3,1.46.45,1.39.73,1.67.05,1.45-1.15.64-.24.65-.09.61-.53.51-.66,1.61-.66,1.72.43,1.32.62,1.25-.42,1.08-.87,1.15-.67.69-.02.28-.54-.43-.71-.24-.77,1.5-1.17,1.89-.66,1.55-.23,1.51.32,1.57.68.41.68.02.82.11.73.55.4.75.19,4.15-.75,3.53.87h.04s-.34-.42-.34-.42l-.37-.98.38-.86.87-1.73,1.18-3.55-.06-2.05,1.16-3.27.48-3.77.12-1.43,1.61-3.2.7-1.09-.23-1.1-.32-.99ZM185.11,155.08l-.7.72-.34-.1-.42.04.02.36-.06.47-.42,1.1v.36s-.14.52-.14.52l-1,.6-2.58-.67-1.44-.15-.64.5-.64,1.11-.34.29-.41-.34-.55-.36-.79-.64-.53-1.03-.65-.64-.69-.27-.27-1.02.62-.86h.67s.72-.12.72-.12l.19-.52.08-.55-.39-.15-.42-.07.48-1.08.77-.84-.28-2.51,2.1-1.74,2.84-.38,2.36-.15,1.79,1.31.57.99-.02.44-.22.37v1.39s.37.54.37.54l.48.41.09.87.02.93-.24.87ZM280.94,61.3l-.53.11-1.06.39-1.59.27-.8.54-.38.86.23,1.15.73.89,1.1.66,1.14.22.85-.43.52-1.06.49-1.59.05-1.43-.76-.58Z"/>
    </g>
    <polygon id="Daejeon" class="cls-3" points="124.6 124.29 126.04 123.97 126.56 123.21 127.19 123.37 127.11 124 127.66 124.28 127.74 125.27 128.2 126.75 127.98 128.05 127.4 128.99 126.75 131.39 125.58 132.33 124.94 132.55 123.94 131.97 122.49 131.24 121.9 130.16 121.49 128.2 120.79 126.89 120.44 125.37 121.33 121.66 121.51 121.23 121.39 120.86 113.4 123.05 109.33 122.25 109.74 121.09 110.42 120.44 116.12 117.8 119.4 117.14 122.8 117.36 122.77 117.96 122.54 118.48 122.45 118.91 122.6 119.26 122.63 119.54 122.68 119.83 122.6 120.4 122.41 120.95 122.31 121.37 122.46 121.78 122.78 122.13 123.17 122.31 123.43 122.94 123.26 123.91 124.6 124.29"/>
    <path id="Chungcheongnam-do" class="cls-2" d="M80.46,123.1l-.34-1.03-.12-.53.04-.27.05-.35-.63-.35-.31-.06v-.34h.94l-.4-.69-.51-.3-.23-.4.2-.45-.12-.54-.75-1.71-.04-.38.34-.27.19-.41-.08-.34-.59-.95-.85.29-.79.74-.39.51.46,1.55.21,1.23.17,2.03-.24,1.33.47-.25.21.5.61-.72.31.34-.81,1.12-.14.83.5.24,1.06-.67-.18.49-.34.32-.22.3.12.83.64.1,1.98-.11.43.2-.25-.87-.6-.93ZM133.29,144.26l-.91-1.62-.38-1.89.06-1.91-.46-1.64-1.37-.84-1.32-.43-1.44.3-.12-1.57.08-1.53.54-2.14,1.01-1.82.41-.93.45-.82.73-.55.17-.96-.57-.19-.62-.28-.75.55-.59.79-.22,1.3-.59.94-.65,2.39-1.17.94-.64.22-1-.58-1.46-.73-.59-1.09-.41-1.96-.7-1.31-.35-1.52.9-3.7.18-.43-.12-.36-7.99,2.19-4.07-.8.41-1.16.68-.65,5.7-2.63.21-1.71.56-1.6-.08-.94.87-1.9,1.24-1.79.94-1.64.37-.4.42.07.42-.12.23-.43.06-.48.14-.61.22-.59.11-.63-.1-.63-.3-.56-.37-.34.05-1.15-.59-.41-.77-1.54-.6-.35-.53-.55-.35-.83-2.11-.29-1.73-1.45-1.93-.88-3.71,1.59h-1.75s-2.08-.43-2.08-.43h-.01s-.86.65-.86.65l-1.94.78-.82.14-.91.41.46.94,1.53,1.7-.95-.12-.9-.26.37,1.4-.23.79-.44.74-.26,1.25-.37-.17-.26-.22-.17-.32-.13-.47.73-.22.13-.5-.38-1.74-.4-.67-.09-.46.04-.44.21-.76.05-.34-.1-1.59-.19-.82-.32-.46-.46.08-.84,1.08-.53.35.7-2.41-.07-1.19-.94-.97-.78-.51-1.08-.29-.86-.31-.77-.1h-.69s-.74.35-.74.35l-.41.78-.28.48-.18.45.17,1.37-.12.46-.2.41-.49.34.16-.92-.05-.52-.44-.85-.09-.4.43-.51.21-.76-.45-.76-.65-.36-.68-.46-.35-.36-.85-.59-.89-.64-.64-.56-.71-.34-.82.02.1.87.42,1.29.92.87.85.41.63.16.31.36-.04.38-.42.25h-.56s-.46-.21-.46-.21l-.38-.34-.71-.89-.46-.43-.38-.07-.15.6.2.16,2.74,2.9.34.57.39,1.14.32.42v.35l-.64-.03-.34-.37-.23-.56-.32-.6-.77-.86-.54-.37-.24.31-.19,1.31-.82,2.67-.18,1.39-.15.26-.33-.19-.33-.51-.15-.72v-2.49l.13-.35.4-.48.08-.15-.05-.38-.21-.35-.05-.39-.19-.47h-.44s-.5.27-.5.27l-.39.39-.28-.9.26-.63.43-.48.23-.46-.33-.74-.79-.28-1.65.03v.42l.2.42-.17.17-.37-.08-.43-.33-.44-.25-.48.08-.44.31-.33.43.82-.06.69.21.32.51-.29.87-.64-.47-.21.18.14.52.43.53.58.23,1.17.02.39.13.35.93-.16,1.25-.63,1.03-1.08.25v.35l.86.36.36.05v.35l-.89.23-.47.19-.19.19-.2.6-.44-.29-.72-.92-.48.56.33,1.25.92,2-1.29-.88-.56.02-.75.69-.32.15-.24-.3-.15-.51-.04-.48.17-.15.8-.53.24-.26-.04-.22-.28-.82v-.51s.26-.48.26-.48l.44-.46.27-.52-.56-1.47-.2-1.22-.03-1.21.13-.77-1.04.32-.21,1.38.11,1.69-.08,1.26-.29.5-.3.21-1.11.02-.61-.13-.11-.38.28-1.36-1.09.39-.77.63-.07.78,1.01.84-.74,1.19.08.69.7.32,1.14.08-.34.66-.52.14-1.27-.38.48.86.47.66-.38-.08-.34-.12-.29-.02-.24.22-.31-.45-.24-.46-.19-.49-.14-.54-.18.71-.23.51-1.14,1.46-.12.38.09,1.36-.05,1.4.17.45.52-.48.25-.64.13-1.39.23-.67.58.48.72.21.69.34.48.87v.84s-.46.32-.46.32l-1.84-.02-.22.23.07.51.19.52.13.26.54.31.46-.03.46-.18.51-.1.87-.32,1.18-1.5.82-.46.34,1.52-.39,1.08,1.31,2.16-.61,1.36.15.32.1.38.05.41v.41s.38-.58.38-.58l.48-.48.58-.33.68-.14-.75-1.02-.07-.46.49-.42-.29-.92-.81-1.3-.42-.86,1.02-.02.32-.65.11-.89.4-.73.72-.13.48.58-.15,1.41.51.24-.27,1.09-.22,3.01.86.57.86.04.83.65.4-.51.47-1.24-.2-1.46.33-1.09-.06-.94-.32-.48-.03-.39.14-.39.71-.3.63-.69.37-.32.14.49.21.34.6.68-1.04.17-.34.68.22.93,1.07.2.42.77-.63.51-.45.65.72.71.53.11.36.48-.27.6-.07.68-.93-.03-.89.42-.62.04.02.23.27.41.22.96.04.51-.2.47.21.51.21.04.35.23.39.36.86-.31.14.3-.43.67-.93,1.09-.03.62.26,1.05.41,1.03.44.54.71-.14.96-1.44.63-.36h2.61l-.87.47-1.84.51-.86,1.25-.92.28-.81.45.67,1.24h-.58v.37l.36.32.53.64.31.21h1.47s.7.19.7.19l.29.74-.41.58-1.99.48-.67.62.68.36,1.9.58.49.61-.65.43-.54,1.14-.94,2.58.28.39.33.36.25.14.36-.21.3.07.5.36.37.43.66,1.09-1.87-.54-1.34.42-1.52.77-.18,1.62.31.28.15-.36.27-1.04.87-.14,1.01.65.02.61h.28s.59-.34.59-.34l.78.34,1.02,1.76.56.19.61.26.29.35-.62.5.4.67.75.99.37.6.23.69.07.51.23.38.68.33.93-.41,1-.17.84-.4.76-.73.9-.62.92-.28,2.01-2.48,2.14-.23,2.51-.54,4.62-1.46,1.65.33-.4,2.44.95,1.48,1.32-.25,1.25-.49,2.46-.48.65-.23.63-.28.94-.19.6-.94.75-.77,1.43,1.27,2.01,3.62,1.48.75.57.15.27.55-.31.63.18.44,2.58.34.96-.24,1.32-.06,1.32-.37,1.08-.95,1.06-1.06-1.02-1.58Z"/>
    <polygon id="Chungcheongbuk-do" class="cls-3" points="153.01 83.49 154.49 83.13 155.97 82.3 156.86 81.61 157.93 81.84 158.81 81.37 159.84 80.57 162.33 81.46 164.88 81.87 165.68 82.11 165.17 83.29 163.88 84.2 163.11 85.39 163.6 85.95 164.24 86.3 164.63 86.3 165.04 86.11 166.39 85.66 168.52 85.42 168.96 85.91 168.89 86.7 169.77 87.63 170.1 88.36 170.91 88.3 171.87 88.13 172.94 87.79 174.01 87.78 175.07 88.58 176.25 89.35 177.41 89.58 178.54 89.71 179.45 90.1 180.34 90.68 179.8 91.3 179.19 91.65 178.66 91.44 178.23 91.72 177.2 92.81 176.07 93.76 175.32 94.49 174.4 94.78 173.85 95.24 173.45 95.95 172.08 96.93 171.09 98.34 170.63 99.39 170.06 100.43 170.37 100.97 170.96 101.52 170.3 103.71 166.57 105.28 164.97 104.75 164.31 103.41 163.26 102.5 162.51 101.97 161.93 101.31 161.35 101.89 160.89 102.62 160.66 103.49 160.35 104.41 159.06 104.31 157.68 103.83 156.96 103.36 156.2 103.85 155.47 104.84 154.58 104.92 153.86 104.44 153.32 105.36 152.76 106.58 152.46 107.72 153.32 108.82 153.97 110.07 150.8 109.57 149.1 108.83 148.13 110.28 146.57 111.02 145.18 111.96 145.07 112.62 145.1 113.14 144.85 113.71 143.84 115.06 143.19 115.76 142.54 115.87 141.88 116.18 142.38 117.45 144.13 117.75 146.32 120.93 145.51 121.72 145.06 122.99 144.88 126.02 144.62 127.35 144.9 128.3 145.39 129.18 144.75 130.45 143.76 131.31 144.03 133.94 145.82 133.52 146.9 133.87 148.17 134.93 149.04 135.34 151.32 134.79 152.33 135.54 152.83 138.42 151.88 138.37 150.81 138.17 149.73 139.09 149.98 140.58 149.99 141.33 149.89 142.24 149.47 142.77 149.12 143.38 148.75 144.8 148.05 146.15 146.93 146.53 145.85 147.06 145.28 147.66 144.7 148.19 144.05 147.83 143.4 147.21 141.75 147.95 140.32 148.83 139.6 148.63 139.18 148.11 137.19 147.45 136.52 146.66 135.76 146.21 135.47 146.6 135.11 146.69 134.69 146.3 134.3 145.84 133.29 144.26 132.38 142.64 132 140.74 132.06 138.83 131.59 137.19 130.22 136.35 128.9 135.92 127.46 136.22 127.34 134.64 127.42 133.11 127.95 130.97 128.96 129.15 129.37 128.22 129.82 127.4 130.56 126.84 130.73 125.88 130.15 125.69 129.54 125.41 128.78 125.96 128.2 126.75 127.74 125.27 127.66 124.28 127.11 124 127.19 123.37 126.56 123.21 126.04 123.97 124.6 124.29 123.26 123.91 123.43 122.94 123.17 122.31 122.78 122.13 122.46 121.78 122.31 121.37 122.41 120.95 122.6 120.4 122.68 119.83 122.63 119.54 122.6 119.26 122.45 118.91 122.54 118.48 122.77 117.96 122.8 117.36 119.4 117.14 116.12 117.8 116.33 116.1 116.88 114.5 116.8 113.57 117.67 111.67 118.91 109.87 119.85 108.24 120.22 107.83 120.65 107.9 121.06 107.78 121.29 107.36 121.35 106.88 121.49 106.27 121.71 105.68 121.82 105.05 121.72 104.42 121.42 103.86 121.06 103.52 121.1 102.38 120.52 101.96 119.75 100.42 119.15 100.07 118.62 99.52 118.27 98.69 120.28 98.1 122.17 97.18 123.66 96.69 124.06 95.04 124.79 94.25 125.93 93.76 126.47 93.06 126.84 92.13 127.53 91.39 128.41 91.57 128.66 91.91 129.78 91.13 131.91 87.16 132.13 86.68 132.39 86.24 132.73 85.96 133.09 85.71 133.45 85.17 133.77 84.58 138.48 83.28 143.23 82.63 142.85 85.34 144.2 85.01 145.57 85.11 145.95 85.35 146.33 85.53 146.68 85.22 146.98 84.86 147.88 84.24 147.64 81.51 148.48 80.48 150.76 79.71 152.46 81.51 152.46 82.71 153.01 83.49"/>
    <polygon id="Busan" class="cls-3" points="204.85 193.38 204.63 193.82 203.94 193.81 203.44 193.79 202.81 193.89 202.35 193.86 201.86 194.08 201.33 194.15 201.28 194.91 201.64 195.44 201.7 196.08 201.47 196.81 200.47 197.27 199.66 196.57 199.17 196.16 198.81 195.72 197.64 196.97 197.1 197.97 196.93 199.04 196.57 199.29 196.36 198.76 195.83 198.18 195.87 198.69 195.98 199.8 195.64 199.8 195.48 199.43 195.29 199.35 194.84 199.65 194.4 199.93 194.1 199.56 193.74 198.33 193.89 197.22 194.23 195.82 194.3 195.03 194.67 194.35 195.34 193.51 195.98 192.54 196.45 189.31 197.08 188.52 197.93 187.9 198.99 187.48 200.12 187.53 200.99 188.09 201.24 189.29 202.04 190.4 203.06 191.22 203.87 192.26 204.77 193.18 204.85 193.38"/>
  </g>
</svg>