<?xml version="1.0" encoding="UTF-8"?>
<svg id="_레이어_2" data-name="레이어 2" xmlns="http://www.w3.org/2000/svg" viewBox="0 0 11.36 12.7">
  <defs>
    <style>
      .cls-1 {
        fill: #bc5151;
        fill-rule: evenodd;
        stroke: #f9f9f9;
        stroke-linecap: round;
        stroke-linejoin: round;
        stroke-width: .25px;
      }
    </style>
  </defs>
  <g id="South_Korea" data-name="South Korea">
    <polygon id="Busan" class="cls-1" points="11.24 6.02 11.02 6.47 10.33 6.45 9.82 6.43 9.19 6.53 8.73 6.51 8.24 6.73 7.71 6.79 7.67 7.56 8.02 8.09 8.08 8.73 7.85 9.45 6.85 9.92 6.05 9.21 5.56 8.81 5.19 8.36 4.02 9.62 3.49 10.62 3.32 11.68 2.96 11.94 2.74 11.4 2.21 10.82 2.25 11.34 2.36 12.45 2.02 12.44 1.87 12.08 1.68 11.99 1.22 12.3 .78 12.57 .49 12.2 .12 10.98 .27 9.87 .62 8.46 .68 7.67 1.05 7 1.73 6.15 2.36 5.18 2.83 1.95 3.47 1.16 4.32 .55 5.37 .12 6.5 .17 7.38 .73 7.63 1.93 8.42 3.04 9.44 3.86 10.25 4.91 11.15 5.83 11.24 6.02"/>
  </g>
</svg>