<?xml version="1.0" encoding="UTF-8"?>
<svg id="_레이어_2" data-name="레이어 2" xmlns="http://www.w3.org/2000/svg" viewBox="0 0 64.48 69.38">
  <defs>
    <style>
      .cls-1 {
        fill: #bc5151;
        fill-rule: evenodd;
        stroke: #f9f9f9;
        stroke-linecap: round;
        stroke-linejoin: round;
        stroke-width: .25px;
      }
    </style>
  </defs>
  <g id="South_Korea" data-name="South Korea">
    <polygon id="Chungcheongbuk-do" class="cls-1" points="37.02 3.91 38.5 3.55 39.97 2.72 40.87 2.03 41.93 2.26 42.82 1.79 43.85 .99 46.34 1.88 48.89 2.28 49.69 2.53 49.17 3.71 47.89 4.62 47.12 5.81 47.61 6.37 48.24 6.72 48.64 6.72 49.05 6.53 50.4 6.08 52.53 5.84 52.97 6.32 52.89 7.12 53.78 8.04 54.1 8.78 54.91 8.72 55.87 8.55 56.95 8.2 58.02 8.2 59.08 9 60.25 9.77 61.42 10 62.55 10.13 63.46 10.52 64.35 11.1 63.81 11.72 63.2 12.07 62.67 11.86 62.24 12.14 61.21 13.23 60.07 14.18 59.33 14.91 58.41 15.2 57.85 15.66 57.46 16.37 56.08 17.35 55.1 18.75 54.63 19.8 54.07 20.85 54.38 21.39 54.97 21.94 54.31 24.13 50.57 25.7 48.98 25.17 48.32 23.83 47.26 22.92 46.52 22.38 45.94 21.73 45.36 22.31 44.89 23.04 44.67 23.91 44.36 24.83 43.07 24.73 41.69 24.24 40.97 23.78 40.21 24.27 39.48 25.26 38.58 25.34 37.87 24.86 37.33 25.78 36.77 27 36.47 28.14 37.33 29.24 37.98 30.49 34.81 29.99 33.11 29.25 32.14 30.7 30.58 31.44 29.19 32.38 29.07 33.04 29.1 33.56 28.85 34.13 27.85 35.48 27.2 36.17 26.55 36.29 25.89 36.6 26.39 37.87 28.14 38.17 30.33 41.35 29.51 42.14 29.07 43.41 28.89 46.43 28.62 47.77 28.9 48.72 29.4 49.6 28.76 50.87 27.77 51.73 28.04 54.36 29.83 53.94 30.91 54.29 32.18 55.35 33.04 55.76 35.32 55.21 36.33 55.96 36.84 58.84 35.89 58.78 34.82 58.59 33.74 59.51 33.99 61 34 61.75 33.9 62.66 33.47 63.18 33.13 63.8 32.75 65.22 32.06 66.57 30.94 66.95 29.85 67.48 29.28 68.08 28.71 68.61 28.06 68.25 27.4 67.63 25.76 68.37 24.32 69.25 23.61 69.05 23.19 68.53 21.19 67.87 20.52 67.08 19.77 66.63 19.48 67.02 19.12 67.11 18.69 66.72 18.31 66.26 17.29 64.68 16.39 63.06 16 61.16 16.06 59.25 15.6 57.61 14.23 56.77 12.91 56.34 11.47 56.63 11.35 55.06 11.43 53.53 11.96 51.39 12.97 49.57 13.38 48.64 13.83 47.82 14.56 47.26 14.73 46.3 14.16 46.11 13.54 45.83 12.79 46.38 12.21 47.17 11.74 45.69 11.67 44.7 11.12 44.42 11.19 43.79 10.57 43.63 10.05 44.39 8.61 44.71 7.26 44.33 7.43 43.36 7.18 42.73 6.79 42.54 6.47 42.19 6.31 41.79 6.41 41.37 6.6 40.82 6.69 40.24 6.64 39.96 6.61 39.68 6.46 39.33 6.55 38.9 6.77 38.38 6.81 37.78 3.41 37.56 .12 38.22 .33 36.52 .89 34.92 .81 33.99 1.68 32.09 2.92 30.29 3.86 28.65 4.23 28.25 4.66 28.32 5.07 28.2 5.3 27.78 5.36 27.3 5.5 26.69 5.71 26.1 5.82 25.47 5.73 24.84 5.43 24.28 5.06 23.94 5.11 22.79 4.52 22.38 3.76 20.84 3.16 20.49 2.63 19.93 2.28 19.11 4.28 18.52 6.18 17.6 7.66 17.1 8.07 15.46 8.8 14.67 9.94 14.17 10.48 13.47 10.85 12.55 11.54 11.81 12.41 11.99 12.67 12.33 13.79 11.55 15.92 7.58 16.14 7.1 16.39 6.66 16.74 6.38 17.1 6.13 17.46 5.59 17.77 5 22.49 3.7 27.24 3.05 26.86 5.75 28.21 5.43 29.58 5.53 29.96 5.76 30.34 5.94 30.69 5.64 30.99 5.28 31.89 4.66 31.64 1.93 32.49 .9 34.76 .12 36.46 1.93 36.46 3.13 37.02 3.91"/>
  </g>
</svg>