<?xml version="1.0" encoding="UTF-8"?>
<svg id="_레이어_2" data-name="레이어 2" xmlns="http://www.w3.org/2000/svg" viewBox="0 0 66.81 59.94">
  <defs>
    <style>
      .cls-1 {
        fill: #bc5151;
        stroke: #f9f9f9;
        stroke-linecap: round;
        stroke-linejoin: round;
        stroke-width: .25px;
      }
    </style>
  </defs>
  <g id="South_Korea" data-name="South Korea">
    <path id="Chungcheongnam-do" class="cls-1" d="M12.84,34.4l-.34-1.03-.12-.53.04-.27.05-.35-.63-.35-.31-.06v-.34h.94l-.4-.69-.51-.3-.23-.4.2-.45-.12-.54-.75-1.71-.04-.38.34-.27.19-.41-.08-.34-.59-.95-.85.29-.79.74-.39.51.46,1.55.21,1.23.17,2.03-.24,1.33.47-.25.21.5.61-.72.31.34-.81,1.12-.14.83.5.24,1.06-.67-.18.49-.34.32-.22.3.12.83.64.1,1.98-.11.43.2-.25-.87-.6-.93ZM65.67,55.56l-.91-1.62-.38-1.89.06-1.91-.46-1.64-1.37-.84-1.32-.43-1.44.3-.12-1.57.08-1.53.54-2.14,1.01-1.82.41-.93.45-.82.73-.55.17-.96-.57-.19-.62-.28-.75.55-.59.79-.22,1.3-.59.94-.65,2.39-1.17.94-.64.22-1-.58-1.46-.73-.59-1.09-.41-1.96-.7-1.31-.35-1.52.9-3.7.18-.43-.12-.36-7.99,2.19-4.07-.8.41-1.16.68-.65,5.7-2.63.21-1.71.56-1.6-.08-.94.87-1.9,1.24-1.79.94-1.64.37-.4.42.07.42-.12.23-.43.06-.48.14-.61.22-.59.11-.63-.1-.63-.3-.56-.37-.34.05-1.15-.59-.41-.77-1.54-.6-.35-.53-.55-.35-.83-2.11-.29-1.73-1.45-1.93-.88-3.71,1.59h-1.75s-2.08-.43-2.08-.43h-.01s-.86.65-.86.65l-1.94.78-.82.14-.91.41.46.94,1.53,1.7-.95-.12-.9-.26.37,1.4-.23.79-.44.74-.26,1.25-.37-.17-.26-.22-.17-.32-.13-.47.73-.22.13-.5-.38-1.74-.4-.67-.09-.46.04-.44.21-.76.05-.34-.1-1.59-.19-.82-.32-.46-.46.08-.84,1.08-.53.35.7-2.41-.07-1.19-.94-.97-.78-.51-1.08-.29-.86-.31-.77-.1h-.69s-.74.35-.74.35l-.41.78-.28.48-.18.45.17,1.37-.12.46-.2.41-.49.34.16-.92-.05-.52-.44-.85-.09-.4.43-.51.21-.76-.45-.76-.65-.36-.68-.46-.35-.36-.85-.59-.89-.64-.64-.56-.71-.34-.82.02.1.87.42,1.29.92.87.85.41.63.16.31.36-.04.38-.42.25h-.56s-.46-.21-.46-.21l-.38-.34-.71-.89-.46-.43-.38-.07-.15.6.2.16,2.74,2.9.34.57.39,1.14.32.42v.35l-.64-.03-.34-.37-.23-.56-.32-.6-.77-.86-.54-.37-.24.31-.19,1.31-.82,2.67-.18,1.39-.15.26-.33-.19-.33-.51-.15-.72v-2.49l.13-.35.4-.48.08-.15-.05-.38-.21-.35-.05-.39-.19-.47h-.44s-.5.27-.5.27l-.39.39-.28-.9.26-.63.43-.48.23-.46-.33-.74-.79-.28-1.65.03v.42l.2.42-.17.17-.37-.08-.43-.33-.44-.25-.48.08-.44.31-.33.43.82-.06.69.21.32.51-.29.87-.64-.47-.21.18.14.52.43.53.58.23,1.17.02.39.13.35.93-.16,1.25-.63,1.03-1.08.25v.35l.86.36.36.05v.35l-.89.23-.47.19-.19.19-.2.6-.44-.29-.72-.92-.48.56.33,1.25.92,2-1.29-.88-.56.02-.75.69-.32.15-.24-.3-.15-.51-.04-.48.17-.15.8-.53.24-.26-.04-.22-.28-.82v-.51s.26-.48.26-.48l.44-.46.27-.52-.56-1.47-.2-1.22-.03-1.21.13-.77-1.04.32-.21,1.38.11,1.69-.08,1.26-.29.5-.3.21-1.11.02-.61-.13-.11-.38.28-1.36-1.09.39-.77.63-.07.78,1.01.84-.74,1.19.08.69.7.32,1.14.08-.34.66-.52.14-1.27-.38.48.86.47.66-.38-.08-.34-.12-.29-.02-.24.22-.31-.45-.24-.46-.19-.49-.14-.54-.18.71-.23.51-1.14,1.46-.12.38.09,1.36-.05,1.4.17.45.52-.48.25-.64.13-1.39.23-.67.58.48.72.21.69.34.48.87v.84s-.46.32-.46.32l-1.84-.02-.22.23.07.51.19.52.13.26.54.31.46-.03.46-.18.51-.1.87-.32,1.18-1.5.82-.46.34,1.52-.39,1.08,1.31,2.16-.61,1.36.15.32.1.38.05.41v.41s.38-.58.38-.58l.48-.48.58-.33.68-.14-.75-1.02-.07-.46.49-.42-.29-.92-.81-1.3-.42-.86,1.02-.02.32-.65.11-.89.4-.73.72-.13.48.58-.15,1.41.51.24-.27,1.09-.22,3.01.86.57.86.04.83.65.4-.51.47-1.24-.2-1.46.33-1.09-.06-.94-.32-.48-.03-.39.14-.39.71-.3.63-.69.37-.32.14.49.21.34.6.68-1.04.17-.34.68.22.93,1.07.2.42.77-.63.51-.45.65.72.71.53.11.36.48-.27.6-.07.68-.93-.03-.89.42-.62.04.02.23.27.41.22.96.04.51-.2.47.21.51.21.04.35.23.39.36.86-.31.14.3-.43.67-.93,1.09-.03.62.26,1.05.41,1.03.44.54.71-.14.96-1.44.63-.36h2.61l-.87.47-1.84.51-.86,1.25-.92.28-.81.45.67,1.24h-.58v.37l.36.32.53.64.31.21h1.47s.7.19.7.19l.29.74-.41.58-1.99.48-.67.62.68.36,1.9.58.49.61-.65.43-.54,1.14-.94,2.58.28.39.33.36.25.14.36-.21.3.07.5.36.37.43.66,1.09-1.87-.54-1.34.42-1.52.77-.18,1.62.31.28.15-.36.27-1.04.87-.14,1.01.65.02.61h.28s.59-.34.59-.34l.78.34,1.02,1.76.56.19.61.26.29.35-.62.5.4.67.75.99.37.6.23.69.07.51.23.38.68.33.93-.41,1-.17.84-.4.76-.73.9-.62.92-.28,2.01-2.48,2.14-.23,2.51-.54,4.62-1.46,1.65.33-.4,2.44.95,1.48,1.32-.25,1.25-.49,2.46-.48.65-.23.63-.28.94-.19.6-.94.75-.77,1.43,1.27,2.01,3.62,1.48.75.57.15.27.55-.31.63.18.44,2.58.34.96-.24,1.32-.06,1.32-.37,1.08-.95,1.06-1.06-1.02-1.58Z"/>
  </g>
</svg>