<?xml version="1.0" encoding="UTF-8"?>
<svg id="_레이어_2" data-name="레이어 2" xmlns="http://www.w3.org/2000/svg" viewBox="0 0 140.33 112.52">
  <defs>
    <style>
      .cls-1 {
        fill: none;
        stroke: #f9f9f9;
        stroke-linecap: round;
        stroke-linejoin: round;
        stroke-width: .25px;
      }

      .cls-2 {
        fill: #bc5151;
      }
    </style>
  </defs>
  <g id="South_Korea" data-name="South Korea">
    <g id="Daegu">
      <path class="cls-2" d="M80,83.4l-.16-.95-.74-.59-.55.92-2.84,3.11-1.15.9-.91-.16-.71-.87-.68-.76-.94-.87.04-.76.74-.62.44-.14.47-.22.36-.49.17-.86-.24-.31-.36-.25-.33-1.44-.26-1.88-.24-.28-.3-.2-.27-.5-.15-.91.19-6.69.24-1.1.54-.94,1.38-1.67.27-1.02.28-4.74-.24-2.3-.61-2.28-.23-2.19v-.09s-.46-.02-.46-.02l-1.49-.34-1.43.63-3.09-1.14.49-1.32-.14-1.24-.39-1.38-.12-1.56.6-1.48.48-1.4-.35-.41-.38-.36.18-1.27-3.27-.24-.96-.55-1.02-.44-.42-1.03-.33-1.19-1.47-.7-.92-1.39-.2-1.81.32-1.39.76-.58.84-.31,1.3.52,1.06-.79-.43-1.29-1.39-.84-1.53-.36-1.21.64-1.17.3-1.65-.76-1.75-.29-.59.24-.49-.06-.38-.51-.54-.23-1.27.99-1.34.53-.1-.98.11-.97-.78-.39-.86-.2-.63-1.1-1.22-.1-1.21.57-.81.99.3,1.38-.14,1.28-.26,1.19-1.14-.11-1.33-.29-1.1-.46-1.14-.61-.54.62-.6.35-.53-.21-.43.28-1.03,1.09-1.14.95-.74.72-.92.29-.55.46-.39.71-1.38.98-.98,1.41-.47,1.05-.57,1.04.31.55.59.54-.66,2.19-3.74,1.57-1.59-.52-.66-1.35-1.05-.91-.74-.53-.58-.65-.58.57-.47.74-.22.87-.31.92-1.29-.1-1.38-.49-.72-.47-.76.49-.73.99-.89.08-.72-.47-.54.92-.56,1.22-.3,1.14.85,1.1.65,1.25-3.17-.5-1.7-.74-.97,1.45-1.56.74-1.39.94-.12.66.03.52-.25.57-1.01,1.35-.65.69-.66.12-.66.31.5,1.27,1.75.3,2.19,3.18-.81.79-.44,1.27-.18,3.02-.27,1.33.28.96.49.88-.64,1.28-.99.85.27,2.63,1.8-.42,1.08.35,1.26,1.06.87.41,2.28-.55,1.01.75.51,2.88-.95-.06-1.07-.2-1.08.93.25,1.49v.76s-.09.91-.09.91l-.43.52-.35.62-.37,1.42-.69,1.35-1.12.38-1.08.53,1.83,3.12-.21,3.51.36,1.22.9.53.42.31.41.35.04.44.18.45.36.16.36.12,1.35.11.59.49.72.49,1.28.1h1.26s1.15.38,1.15.38l.85.92.6,1.13.99.7.25.51.15.47.69.43.6.7-.03,1.3-.54,1.24.7,2.54,2.75.12,1.35-.19,1.29.22,1.21.58,1.14.86,1.27.26,2.39-1.23,1.22.25,1.1-1.57,1.03-.8.37,3.04,1.13,1.38,1.4.89,1.62-.18,1.67-.3,1.46.45,1.39.73,1.67.05,1.45-1.15.64-.24.65-.09.61-.53.51-.66,1.61-.66,1.72.43,1.32.62,1.25-.42,1.08-.87,1.15-.67.69-.02.28-.54-.43-.71-.24-.77,1.5-1.17,1.89-.66,1.55-.23,1.51.32,1.57.68.41.68.02.82.11.73.55.4.75.19,4.15-.75,3.53.87h.04s-.34-.42-.34-.42l-.37-.98.38-.86.87-1.73,1.18-3.55-.06-2.05,1.16-3.27.48-3.77.12-1.43,1.61-3.2.7-1.09-.23-1.1-.32-.99ZM43.48,94.03l-.7.72-.34-.1-.42.04.02.36-.06.47-.42,1.1v.36s-.14.52-.14.52l-1,.6-2.58-.67-1.44-.15-.64.5-.64,1.11-.34.29-.41-.34-.55-.36-.79-.64-.53-1.03-.65-.64-.69-.27-.27-1.02.62-.86h.67s.72-.12.72-.12l.19-.52.08-.55-.39-.15-.42-.07.48-1.08.77-.84-.28-2.51,2.1-1.74,2.84-.38,2.36-.15,1.79,1.31.57.99-.02.44-.22.37v1.39s.37.54.37.54l.48.41.09.87.02.93-.24.87ZM139.31.25l-.53.11-1.06.39-1.59.27-.8.54-.38.86.23,1.15.73.89,1.1.66,1.14.22.85-.43.52-1.06.49-1.59.05-1.43-.76-.58Z"/>
      <path class="cls-1" d="M80,83.4l-.16-.95-.74-.59-.55.92-2.84,3.11-1.15.9-.91-.16-.71-.87-.68-.76-.94-.87.04-.76.74-.62.44-.14.47-.22.36-.49.17-.86-.24-.31-.36-.25-.33-1.44-.26-1.88-.24-.28-.3-.2-.27-.5-.15-.91.19-6.69.24-1.1.54-.94,1.38-1.67.27-1.02.28-4.74-.24-2.3-.61-2.28-.23-2.19v-.09s-.46-.02-.46-.02l-1.49-.34-1.43.63-3.09-1.14.49-1.32-.14-1.24-.39-1.38-.12-1.56.6-1.48.48-1.4-.35-.41-.38-.36.18-1.27-3.27-.24-.96-.55-1.02-.44-.42-1.03-.33-1.19-1.47-.7-.92-1.39-.2-1.81.32-1.39.76-.58.84-.31,1.3.52,1.06-.79-.43-1.29-1.39-.84-1.53-.36-1.21.64-1.17.3-1.65-.76-1.75-.29-.59.24-.49-.06-.38-.51-.54-.23-1.27.99-1.34.53-.1-.98.11-.97-.78-.39-.86-.2-.63-1.1-1.22-.1-1.21.57-.81.99.3,1.38-.14,1.28-.26,1.19-1.14-.11-1.33-.29-1.1-.46-1.14-.61-.54.62-.6.35-.53-.21-.43.28-1.03,1.09-1.14.95-.74.72-.92.29-.55.46-.39.71-1.38.98-.98,1.41-.47,1.05-.57,1.04.31.55.59.54-.66,2.19-3.74,1.57-1.59-.52-.66-1.35-1.05-.91-.74-.53-.58-.65-.58.57-.47.74-.22.87-.31.92-1.29-.1-1.38-.49-.72-.47-.76.49-.73.99-.89.08-.72-.47-.54.92-.56,1.22-.3,1.14.85,1.1.65,1.25-3.17-.5-1.7-.74-.97,1.45-1.56.74-1.39.94-.12.66.03.52-.25.57-1.01,1.35-.65.69-.66.12-.66.31.5,1.27,1.75.3,2.19,3.18-.81.79-.44,1.27-.18,3.02-.27,1.33.28.96.49.88-.64,1.28-.99.85.27,2.63,1.8-.42,1.08.35,1.26,1.06.87.41,2.28-.55,1.01.75.51,2.88-.95-.06-1.07-.2-1.08.93.25,1.49v.76s-.09.91-.09.91l-.43.52-.35.62-.37,1.42-.69,1.35-1.12.38-1.08.53,1.83,3.12-.21,3.51.36,1.22.9.53.42.31.41.35.04.44.18.45.36.16.36.12,1.35.11.59.49.72.49,1.28.1h1.26s1.15.38,1.15.38l.85.92.6,1.13.99.7.25.51.15.47.69.43.6.7-.03,1.3-.54,1.24.7,2.54,2.75.12,1.35-.19,1.29.22,1.21.58,1.14.86,1.27.26,2.39-1.23,1.22.25,1.1-1.57,1.03-.8.37,3.04,1.13,1.38,1.4.89,1.62-.18,1.67-.3,1.46.45,1.39.73,1.67.05,1.45-1.15.64-.24.65-.09.61-.53.51-.66,1.61-.66,1.72.43,1.32.62,1.25-.42,1.08-.87,1.15-.67.69-.02.28-.54-.43-.71-.24-.77,1.5-1.17,1.89-.66,1.55-.23,1.51.32,1.57.68.41.68.02.82.11.73.55.4.75.19,4.15-.75,3.53.87h.04s-.34-.42-.34-.42l-.37-.98.38-.86.87-1.73,1.18-3.55-.06-2.05,1.16-3.27.48-3.77.12-1.43,1.61-3.2.7-1.09-.23-1.1-.32-.99ZM43.48,94.03l-.7.72-.34-.1-.42.04.02.36-.06.47-.42,1.1v.36s-.14.52-.14.52l-1,.6-2.58-.67-1.44-.15-.64.5-.64,1.11-.34.29-.41-.34-.55-.36-.79-.64-.53-1.03-.65-.64-.69-.27-.27-1.02.62-.86h.67s.72-.12.72-.12l.19-.52.08-.55-.39-.15-.42-.07.48-1.08.77-.84-.28-2.51,2.1-1.74,2.84-.38,2.36-.15,1.79,1.31.57.99-.02.44-.22.37v1.39s.37.54.37.54l.48.41.09.87.02.93-.24.87ZM139.31.25l-.53.11-1.06.39-1.59.27-.8.54-.38.86.23,1.15.73.89,1.1.66,1.14.22.85-.43.52-1.06.49-1.59.05-1.43-.76-.58Z"/>
    </g>
  </g>
</svg>