<?xml version="1.0" encoding="UTF-8"?>
<svg id="_레이어_2" data-name="레이어 2" xmlns="http://www.w3.org/2000/svg" viewBox="0 0 19.11 15.66">
  <defs>
    <style>
      .cls-1 {
        fill: #bc5151;
        fill-rule: evenodd;
        stroke: #f9f9f9;
        stroke-linecap: round;
        stroke-linejoin: round;
        stroke-width: .25px;
      }
    </style>
  </defs>
  <g id="South_Korea" data-name="South Korea">
    <polygon id="Daejeon" class="cls-1" points="15.39 7.27 16.83 6.95 17.35 6.19 17.98 6.35 17.9 6.98 18.45 7.26 18.53 8.25 18.99 9.73 18.77 11.03 18.19 11.98 17.54 14.37 16.37 15.31 15.73 15.53 14.73 14.95 13.28 14.22 12.69 13.14 12.28 11.18 11.58 9.87 11.23 8.35 12.12 4.64 12.3 4.21 12.18 3.84 4.19 6.03 .12 5.23 .53 4.07 1.21 3.42 6.91 .79 10.19 .12 13.59 .34 13.56 .94 13.33 1.46 13.24 1.89 13.39 2.24 13.42 2.53 13.47 2.81 13.39 3.38 13.2 3.93 13.1 4.35 13.25 4.76 13.57 5.11 13.96 5.29 14.22 5.92 14.05 6.89 15.39 7.27"/>
  </g>
</svg>