<?xml version="1.0" encoding="UTF-8"?>
<svg id="_레이어_2" data-name="레이어 2" xmlns="http://www.w3.org/2000/svg" viewBox="0 0 112.21 113.7">
  <defs>
    <style>
      .cls-1 {
        fill: #bc5151;
        fill-rule: evenodd;
        stroke: #f9f9f9;
        stroke-linecap: round;
        stroke-linejoin: round;
        stroke-width: .25px;
      }
    </style>
  </defs>
  <g id="South_Korea" data-name="South Korea">
    <polygon id="Gangwon-do" class="cls-1" points="67.47 11.44 71.41 19.25 74.48 27.43 74.99 28.32 76.59 30.3 77.2 31.97 84.64 42.62 87.53 46.83 90.99 50.67 91.48 51.07 93.8 53.8 93.92 54.96 93.93 56.34 94.21 57.52 95.79 58.4 96.24 59.34 97.55 63.59 98.13 64.58 98.83 65 99.41 65.6 101.44 69.6 102.66 71.14 103.09 71.99 103.25 72.88 103.56 73.75 105.71 76.12 106.4 78.07 107.01 82.31 107.85 84.65 110.14 87.84 110.31 88.51 110.05 89.15 109.64 89.77 109.37 90.37 109.36 90.92 109.68 92.67 110.07 97.66 110.49 99.96 111.97 104.66 112.09 106.96 111.62 109.08 110.62 111.01 109.8 113.3 109.35 113.28 107.86 112.94 106.43 113.57 103.34 112.43 103.83 111.11 103.69 109.87 103.3 108.49 103.18 106.93 103.78 105.45 104.26 104.05 103.91 103.63 103.52 103.27 103.7 102 100.43 101.76 99.47 101.21 98.45 100.77 98.03 99.74 97.7 98.56 96.23 97.86 95.31 96.47 95.11 94.66 95.44 93.27 96.2 92.69 97.03 92.38 98.33 92.9 99.39 92.1 98.96 90.82 97.56 89.97 96.04 89.62 94.82 90.26 93.65 90.55 92.01 89.8 90.26 89.5 89.67 89.74 89.18 89.68 88.8 89.18 88.26 88.95 86.99 89.94 85.65 90.47 85.55 89.49 85.66 88.51 84.88 88.13 84.02 87.93 83.39 86.83 82.17 86.73 80.96 87.3 80.15 88.29 80.44 89.67 80.3 90.95 80.04 92.15 78.9 92.04 77.56 91.75 76.46 91.29 75.32 90.68 74.42 90.1 73.52 89.71 72.38 89.58 71.22 89.35 70.04 88.58 68.98 87.78 67.92 87.79 66.84 88.13 65.88 88.3 65.07 88.36 64.75 87.63 63.86 86.7 63.94 85.91 63.5 85.42 61.37 85.66 60.01 86.11 59.61 86.3 59.21 86.3 58.58 85.95 58.09 85.39 58.85 84.2 60.14 83.29 60.66 82.11 59.85 81.87 57.31 81.46 54.82 80.57 53.78 81.37 52.9 81.84 51.84 81.61 50.94 82.3 49.46 83.13 47.98 83.49 47.43 82.71 47.43 81.51 45.73 79.71 43.46 80.48 42.61 81.51 42.86 84.24 41.95 84.86 41.65 85.22 41.31 85.53 40.92 85.35 40.54 85.11 39.18 85.01 37.82 85.34 38.2 82.63 33.46 83.28 28.74 84.58 31.16 80.09 33.15 75.21 35.9 69.33 36.24 68.07 35.98 66.8 36.57 65.78 37.39 64.77 38.28 64.41 38.74 63.4 38.24 62.54 37.57 61.97 36.51 61.85 35.42 61.44 33.92 61.24 31.41 59.84 30.28 59.38 29.16 58.64 27.92 58.45 26.73 58.83 25.74 57.99 25.82 57.08 26.29 56.12 26.47 55.01 26.48 53.87 25.3 54.25 24.77 53.56 26.07 52.03 25.86 51.01 25.5 50 25.76 49.23 25.74 48.31 25.65 47.44 27.92 45.76 28.84 45.46 29.35 44.67 29.58 42.38 28.52 40.76 27.66 40.58 26.83 40.2 26.21 38.53 25.22 38.48 24.16 38.55 23.01 37.7 22.46 36.2 22.23 33.54 21.81 32.19 21.51 31.93 21.16 31.99 20.92 32.22 20.62 32.26 19.86 31.73 18 32.39 16.29 31.97 15.59 31.55 14.89 30.91 14.87 29.84 15.21 28.83 15.47 28.45 15.65 28.08 15.35 27.83 14.97 27.74 14.61 27.82 14.3 28.06 13.71 28.83 13.05 29.5 12.03 29.67 11.14 29.06 10.97 28.51 10.9 27.95 10.58 27.75 10.24 28.11 10.12 28.69 10.11 30.55 9.53 31.47 7.89 30.69 6.39 29.33 5.87 28.78 5.31 28.85 4.82 28.13 4.51 27.19 4.11 26.7 3.62 26.31 3.25 25.42 2.58 25 1.01 24 .12 23.56 .39 23.23 2.83 21.21 5.68 19.42 8.67 18.21 11.55 17.89 12.97 18.05 18.48 17.56 22.71 18.85 24.06 18.73 26.68 17.93 35.29 17.17 35.66 17.42 36.23 18.25 36.78 18.81 37.39 18.96 40.34 18.34 45.02 18.62 48.07 18.37 51.13 17.28 53.98 15.43 56.36 12.94 57.39 11.46 58.25 9.87 58.83 8.12 59.03 6.09 58.65 4.14 58.55 3.14 58.83 2.41 60.05 1.44 62.58 .12 63.91 2.77 63.91 2.77 65.99 6.89 66.41 8.7 67.47 11.44"/>
  </g>
</svg>