<?xml version="1.0" encoding="UTF-8"?>
<svg id="_레이어_2" data-name="레이어 2" xmlns="http://www.w3.org/2000/svg" viewBox="0 0 121.48 79.37">
  <defs>
    <style>
      .cls-1 {
        fill: #bc5151;
        stroke: #f9f9f9;
        stroke-linecap: round;
        stroke-linejoin: round;
        stroke-width: .25px;
      }
    </style>
  </defs>
  <g id="South_Korea" data-name="South Korea">
    <path id="Gwangju" class="cls-1" d="M43.58,22.16l.11.12.16.12.43-.07,1.19.32.24-.06.16-.44.38-.57.5-.49.48-.2-.6-.97-.2-.56.04-.55.31-.46,1.36-.79-.68-.18-.92.22-.81.52-.34.74-.22.35-.49.24-.53.18-.31.18-.24.51-.35,1.73.2.03.12.09ZM42.17,32.51l.38.14.29.25.37.14.64-.19.52-.45.34-.65.14-.76-.11-.78-.35-.61-.5-.34-.44.11-.19.72-.17.33h-.37s-.43-.11-.43-.11l-.29-.02-.61.56-.8,1.28-.44.39v.34h.55s1.46-.34,1.46-.34ZM16.02,42.33h-.38s-.15-.38-.15-.38l-.2-.16-.37.07-.37.28-.32.51-.3.58-.25.66-.05.72.29.78.44.18.18-.2.23-.32.29-.49.14-.38.7-.82.12-.31.21-.25.39-.39-.09-.22-.51.13ZM1.57,75.04l-.39-.49-.49-.17-.34.32-.22.57.11.42.5.31.87.8.22.14.1.05.2.04.14-.24-.04-.43-.64-1.32ZM42.47,48.78l.47-.03.4-.14.12-.64-.37-.76-.48-.7-.57-1.25-.37.48-.16,1.05.17,1.88.36.3.43-.2ZM40.81,41.46l-.53-.48-.38-.7-.17-.11-.28.14-.81,1.11-1.32.53-.31.42.4.91.2-.07.7.3.65.38v.17s.46.04.46.04l.31-.03.31-.23.68-.91.19-.4.1-.43-.06-.42-.14-.23ZM40.96,36.96l-.16-.16-.21-.04-.3.04-1.46.56-.8.17-.61-.23-.55.21-.49.32-.36.48-.13.68.08.72.23.58.39.36.52.06.53-.24.39-.48.24-.64.09-.73.25-.14.56.12h.61s.39-.52.39-.52l.23.13.51.14.21.09-.02-1.15-.12-.34ZM47.85,20.24l.48,1.12.24.3.25.13.19.18.19.04.39.04.25.22,1.14.19.31.09-.08.27v.48s.17.32.17.32l.22.28.52.12.12.17.17-.14.17-.53-.08-.42-.23-.31-.13-.48-.27-.38-.47-.03-.41-.19-.49-.51v-.29l.17-.2.41-.03.31-.31-.11-.36-.28.08h-.22s-.09-.23-.09-.23l-.28-.14-.43.23-.38.13-.42-.28-.52-.19-.57.19-.27.44ZM48.89,23.26l-.04-.28-.11-.24-.19-.26-.4-.11-.57.05-.39-.18-.29.04-.35.23-.08.25.19.06.2-.04.13.07-.32.25.06.12h.22s.17.08.17.08l.07.24.21.02.24-.12.18.12.4.44.24.09.23-.13.19-.17v-.53ZM45.38,33.37l-.43-.24-.53.06-.65.33-.13.43.31.57.37.52.67.76-.02.22.1.32.4.03.48-.27.15-.52v-.61s.27-.32.27-.32l.44.02.32-.2.11-.51-.22-.85.6-.39-.05-.34-.21-.31-.22-.12-.28.03h-.58s-.43.41-.43.41l.09.64-.12.33h-.41ZM44.73,62.94l-.3-.15-.64.1-1.54-.32-.33.22-.02.27-.19.26.03.29.31.45.92.38.28-.04.08-.27h.15s.19.28.19.28l.2.09.25-.21.43-.05.21-.31-.07-.39.04-.6ZM53.83,31.88l-.56.17-.04.23-.15.15-.16.2-.91.33-.71.05-.24.29.27.35.53.18.66-.11.58-.29,1.32-.21.19.1,1.25.69.12.22-.14.31-.28.32.48.18.88-.81-.09-1.15-.85-.3h-.63s-.29-.1-.29-.1l-.06-.25-.03-.32.08-.25.68-.45.39-.05.06-.32-.57-.57-.8-.4-.77-.19-.49.25.15.54.35.48-.02.4-.2.34ZM48.3,36.68l-.11-.23-.32-.44-.43-.19-.34.28-.65.28-1.11.18-.44.37.55.32.75.28.58.5.52.3.53-.14.27-.29-.09-.73.15-.35.14-.14ZM44.94,39.29l.41.75.08.46.32.23.33-.03.16-.08.24-.21h.48s.41.61.41.61l.52.52.57-.06.26-.52-.02-.58-.15-.48-.04-.36.03-.27-.16-.3-.3-.27-.44-.11-.53-.04-.39-.2-.27-.29-.42-.19-.56-.09-.48.05-.33.17h-.35s-.43-.12-.43-.12l.19.45.88.93ZM51.77,29.94l.17-.14.15-.56v-.23s-.27-.11-.27-.11h-.76l-.35.19-.09.52.22.49.54.02.4-.17ZM99.47,78.7l-.26-.23-.57-.94-.08-.56.15-.5-.11-.23-.07.02-.12.14-.21.07-.16-.05-.14.05-.03.22.02.25-.07.22.11.37.14.17.17.12.1.45.15.37.11.17.61.14.63.31.05-.27-.12-.18-.32-.09ZM95.26,53.32l-.73-.06-1.4.17-1.46.27-.71.29-.62.46.42.28.17.24-.04.25-.24.3v.4l1.07.72.52.26.71.1,1.84-.34.82-.34.59-.82.15-1.01-.49-.88-.61-.3ZM89.5,60.94l-.27-.35-.15-.25-.21-.18-.45.05-.61.19-.35-.15-.17-.49-.29-.44-.32-.31-.14-.05.04.14-.44.37-.41.5-.26.18-.33.07-.11.1.13.09.29.1.75.07.3.18.11.27-.13.22.98.2.16.22-.28.19-.22.34.04.48.46-.21.79-.62.32-.32-.27-.16-.12-.15.32-.13.44.1.38.19.27-.06-.09-.25-.15-.13ZM120.37,52.17l-.36-.07-.02-.19.08-.38-.68-1.32-.58-.43-.82.11-.75.36-.24.46.32.38.37.2.22.34.2.46.44.34.65.22.41.23.15.22.09.09.36-.02.56-.19.1-.34-.2-.31-.29-.16ZM108.18,54.17l-.41.02-.4.4-.21.05v-.14s-.64-.16-.64-.16l-.33-.19-.32-.14-.22.12.08.24.03.3-.16.41.3.22.49.31-.12.22.21.28.45.15.3.32.02.46.25.15.71-.22.81-.53.34-.36v-.32l-.2-.54-.98-1.05ZM121.24,27.47v-1.01s-.6-1.48-.6-1.48l-2.78-3.03-.48-1.01-.39-1.15-1-1.05-1.1-.8-.6-1.09-.19-2.9-.45-1.4-.92-1.08.24-1.19-2.55-2.06-2.86-1.03-1.62.9-1.3,1.4-1.4.2h-1.48s-1.62.23-1.62.23l-1.64-.03-.76-.45-.68-.52-.78.2h-.93s-1.35.21-1.35.21l-1.28.77-1.66-.25-1.07-1.15.06-1.81-.91-1.03-.27-1.02.4-1.58-.9-1.37-1.31.07-.32.56-.44.42-.29.72-.11.78-1.38.02-2.09-2.84-1.37-1.12-.78-.33-.81-.06-.74.88-1.51-.15-1.12,1.01v.74s.04.74.04.74l-.41.62-.56.41.03.58.09.56-.37.78-.59.51-.73.35-.77.22-.65.39-.6.44-1.5.22-1.42.51-1.33.33-1.11-.37.06-1.48.29-1.47.26-2-1.29-.35-4.34,1.21-.92.3h0s.86.98.86.98l.11.4-.4.03-.79-.24-.65-.85-.26-.27-.98,1.5-.39.84-.15.85.08.38.14.34.07.36-.15.41-.29.32-.29.22-.26.29-.22.49.35.07.16.11.14.12.27.1-.81.2-.93.05-.82.19-.5.62,1.27-.02.59-.1.57-.23-.09.76.23.43.47.33-.1.5-.21.3-.21.22-.1.27.34.79,1.46,1.71.46,1.23.29.3.36.2.84.21.22.35.02.97-.12.87-1.13,2.55-.48-.49-.32-.56-.07-.6.26-.62-.34-.19-.75-.03-.43-.15-.53-.32-.16-.18-.04-.31-.18-.72-.14-.09-.21.08h-.18l-.09-.32.05-.32.2-.51.12-1.01-.06-.52-.32-.62-.36,1.25-.32.63-.57.36-.36-.86-.81-.42-.91.12-.64.75.16.91,1.15,1.53-.42.58.63.83.63-.02.31-.7-.35-1.23.85.29.78.72,1.27,1.76.33,1.14-1.25,1.24.13,1.17-1.12-.24-.5-.03-.51.26.22.49.28.41.33.34.39.28-.19.08-.43.29.56.37.78.25.81-.06.62-.57v-.51s-.23-.63-.23-.63l-.07-.53.44-.22.34-.12.24-.27.3-.26.51-.09,1.12.27-.26.48-.84.58-.62.57-.09.9.27,1.07.49.91.56.44-.58.51-.15.4.12.81-.02.42-.08.37-.19.39-.33.5-.91.91-.32.54.15.58.47.24.96-.32h.61s.07-.55.07-.55l.38-.18,1.19.27.59-.18.39-.35.41-.18.61.31-.19.29-.24.57-.18.29.28.21v.13l.89-.08.47-.63.5-1.85.53-1.07.08-.07-.07-.49-.29-.92.05-.45.49-.68.66-.31.61.19.36.8v.56s-.21.33-.21.33l-.24.27-.16.36v.57l.12.37.06.36-.17.53,2.32-.21,1.01.19.66.77-.47-.02-.37.08-.69.35.32.69-1.05-.08-2.05-.61-1.09.27-.53.7-.09.96.2,1.05-.21-.08-.12-.1-.11-.11-.17-.12-.69.13-2.04-1.51-1.7.76-1.33-.21-.63.26-.64.8.14.52,1.03.34,1.12-.3.91.59,1.32-.09,1.11.22.81.38,1.46,1.87.97.71-.33.4,1.34,1.18.76.48.94.16-.93.24-1.29-.41-1.06-.58-.83-.48-.56.12.93,1.24-.19.24-.47-.31-.62-.45-.48-.47-.8-.32-.58-.38-.27-.37-.46-.3-.11-.33.02-.21v-.22s.11-.71.11-.71l-.24-.43-1.87-.41-1.22.12.26.95-.34.77.14,1.36.28,1.01.46-.04.28-.77.59-.11-.16,1.25.57.57.43.68.92.2.27.13.5-.08-.36.94-.51.05-.95-.66-2.21-.37-.56-.33-.92-2.59-.15-.6-.08-.55.13-.54.43-.56-1.36-2.04-.29-.65-.26-.18-.35-.1-.33-.03-.36.18-.07.42.04.5-.05.41-.47,1.21-.39,1.74.08,1.56.93.68,1.2.59.19.56-.32.26h-.45s-.18-.26-.18-.26l-.17.3-.18.07-.08.16.15.55.12.06.93.89.28.11.36-.07.32-.18.13-.21.13-.35.27.26.22.44v.17s1.05.52,1.05.52l.38.5.08.86.66-.26.52-.09.96-.02.44.07h.38s.4-.07.4-.07l.15-.49.19-.37.27-.25h.3s.58.37.58.37h.37s.28-.19.28-.19l.4-.5.2-.08.54.3v.51s-.45.58-.45.58l-.7.49.42.15.35.22.28.32.2.42-1.11.03-1.19.23-.89.66-.2,1.31.72-.24.08.36-.17.67-.02.69-.1.08-.13.27.07.29.48.13.66.08.33.11.22.18.17.55-.12.55-.63,1.15-.19.13-.2-.07-.15.03-.09.85-.08.22-.24.31v.34l1.17-.06.56.11.41.35.08.61-.42,1.3.06.64.52.11,2.06-.68,1.09.23v-.62l.09-.52,1.09-3.65.18-.35.5-.42,1.32-.33.35-.24.23-.54v-.4s.13-.25.13-.25l.59-.09.22.06.41.25.27.06.15-.12.05-.26-.04-.26-.15-.12-.66-.26.64-.59,1.71-.99-1-1.27-.18-.66,1.38-.46v-.46s-.3-.65-.3-.65l-.18-.75.15-.52.37-.59.49-.46.48-.14.51.38.29.73.05.83-.25.68.17,1.06-.19,2.74.35,1.04.39.24,1.71.5,1.25.89.58.18-.25-.63-.02-.58.19-.53.39-.47,1.19.59.42-.37-.08-2.24,2.46-2.43-.33-.71.21-.58.41-.49.29-.45.08-.63-.02-.6.08-.45.34-.17.55-.14.57-.33.88-.67,1.63-.96.36-.3.81-1.07.49-.45.53-.19,1.12.23.54.03.64-.26.62-.76.9-2.32.63-1,1.1,1.78.81.67.97-.41.85-.66.32.44.24.97.62.93-.35.57-.61,1.31-.29.38-.69.26-.51-.17-.38-.49-.27-.71.24-.52-.08-.42-.31-.33-.47-.25-1.29,1.43-.24.43.04.82.27.42.35.36.26.63v1.6s-.64.9-.64.9l-1.09.4-1.31.09.65-1.58.22-.88.04-.91-.65.32-.32.4-.56,1.17-.9,1.19-.32.28-.99.59-.28.46.05.8.41.78.6.32.7.14.73.25-.13-.22-.18-.56,1.77-.93.51-.12,1.67,1.81.63,1.29,1.82,2.41h1.24s-.57-.63-.57-.63l-.13-.94,1.29-.98.82.38.75-1.07,2.12-1.95-.93-.79-1.7.44-.38-.25-.63-.14-.53-1.12-.11-.17.26-.41.61-.44.72-.33.58-.11.65.21,2.03,1.27.55-.14.87.04.46-.39.41-.41-.13-1.13-.25-.6-1.92-.74.33-.07h.78s.46.07.46.07l-.96-1.37-1.4-.9-1.29-1.16-.62-2.16.12-.15.24-.06.09-.19-.32-.52-.45-.19-.84.34-.38-.31.16-.74.96-.54,1.9-.61v-.34l-.95-.28-1.15-.5-.59-.48.73-.22,1.93.05.89-.11,1.52-.54.23-.03.15-.11.29-.41.76-1.94.15-.12.1-.23.21.07.21.24.1.31-.04.28-.2.53-.04.32.12.53.68,1.43-.13.21-.08.33.02.28.22.23.26.04h.25s.19.13.19.13l.71,1.53.36.51.21.92-.42,1.07-.58,1.13-.27,1.15.22,1.21.51.8.8.44,1.07.13.73.77.46.26.2-.45-.33-2.42-.26-.76-.35-.72.22-.06.06-.1.07-.02.26.17.82-1.79,1,.21,1.24.62,1.57-.53.37-.63.51-2.71.44-1.54.15-.76.05-1.07-.84.45-.76-.05-.82-.16-.96.13-1.38,1.3-.56.35-.47-.23-.5-.65-.71-.46-.79-1.08-.69-1.24-.41-.96-.05-.91.24-1.09.49-.7.7.28.84,1.72.67.58.94-.42,1.69-1.35.41-.48.18-.34.32-1-.1-.29-.08-.65.12-.42.51.41.26.53.11.41.24.28.6.1,1.81-.02.29.08-.11-.24ZM83.91,17.19l-2.75-.44-2.43-1.46-1.22-2.69.96-.91,1.6.43,1.17-.27,1.22-.37,2.3.86.9,2.5-1.76,2.35ZM45.42,47.68l-.08-.28-.1-.1-.03-.47-.55-.31-.32-.34-.54-.44-.34.25.28.91.45.72.22.54-.22.53-.51.39-.65.02-.62.09-.24.29.99.22.04.19-.27.2-.23.23h-.27s-.26.1-.26.1l.16.28.52.15.49-.07.88-.52.37-.35.36-.27.25-.27.04-.52.14-.6.04-.56ZM81.36,68.89l-.45-.65-.76-.2-.64.31-.32.3-.17.41-.07.51-.28.56.18.83.17.1.15-.27.29-.04.4.36.49.25.66-.06.52-.28.28-.5.11-.29.12-.68-.27-.3-.43-.39ZM67.51,70.46l-.25-.07h-.5s-.37.11-.37.11l-.26-.03-.88-.56h-.68l-.79.55-.39.8.03.82.48.63.85.04.67-.41.44-.4.5-.34.15-.29.24-.23h.42s.41.21.41.21l.17.07.08-.21.16.03.19.17.11-.24-.37-.47-.39-.16ZM56.41,50.48l-.04-.47-1.01.64-.2.07-.3-.24-.21-.37-.13-.34-.11-.15-.48-.25-.64-.51-.74-.4-.72.05-.3.45,1.15.91.34.68-.27.82-.63.42-.71-.07-.52-.64-.12.77-.32.24-.43.07-.48.26-.41.46-.26.42-.4,1.17-1.25.09-1.27,1.46-.56,1.81.94,1.11v-1.14l1.29.81.24.33-.13.28-.33.33-.25.4.1.47.52.13,1.88-.16.51-.18,4.25-2.32.18-.87v-.34l.35.22.76.72.08.17.44-.3.36-.57.88-1.89.24-.81.12-.83-.07-.74-1.33-2.15ZM78.89,62.91l.23-.2.41-.08.39.07.28-.31.04-.38.07-.18.26-.3.09-.4-.39-.23-.63-.15-.5-.05-.19.04h-.19s-.32-.07-.32-.07l-.26-.2-.45.11-.6.49-.49.21-.41-.19-.35-.05-.16.08-.2.11-.45.13-.46.06.06.18.99.44.17.11.17.09h.43s.53-.18.53-.18l.46-.07.35.15.24.33.09.42.22.31.4-.08.19-.2ZM68.1,67.79l-.23-.17-.48-.25-.93-.16-.35-.19-.35-.11-.15.13.23.38.03.15-.11.12-.16.08-.04.12.09.13-.02.16-.13.24-.23.65.04.18.21.04.19.07.09.22.35.33.68.18.23-.19-.22-.39.36-.07.65-.04.16-.61.31-.26-.04-.47-.18-.26ZM70.77,71.29l-.45-.67.08-.41.42-.37-.11-.53-.76-.39h-.38s-.02.18-.02.18l-.37.36.09.25.29.27-.1.69-.28,1.24.1.72.23.05.21.17.08.25.23.14.44-.12.23-.42v-.54l.07-.32.2-.03.14-.16-.15-.26-.18-.1ZM78.28,56.22l-.21-.32-.56-.1-.93.22-.88.49-.63.83-.31.68-.21.32-.16.32.2.2.22.02.21.16.09.47v.56s.28.34.28.34l.24-.17.13-.58.41-.56,1.18-.55.23-.33.38-.09.92.28.33-.05-.04-.33-.3-.43-.34-.38-.41-.25-.04-.13.23-.24-.04-.36ZM74.87,62.87l-.82-.81-.14-.46-.24-.33-.14-.4-.12-.86-.41-1.04-.53-.63-.48-.33-.51-.17-.78.08-.26.06-.48.23-.35.52-.18.68-.04.68.04.67.13.59.31.4.52.34.58.16.47-.12.39.1.11.4-.41.32v.35s.85.29.85.29l.68.16.39.18.21-.13.04-.32.19-.04.34.22.4.17.22.06.22.03.15-.15-.25-.6-.09-.33Z"/>
  </g>
</svg>