<?xml version="1.0" encoding="UTF-8"?>
<svg id="_레이어_2" data-name="레이어 2" xmlns="http://www.w3.org/2000/svg" viewBox="0 0 35.63 19.83">
  <defs>
    <style>
      .cls-1 {
        fill: #bc5151;
        fill-rule: evenodd;
        stroke: #f9f9f9;
        stroke-linecap: round;
        stroke-linejoin: round;
        stroke-width: .25px;
      }
    </style>
  </defs>
  <g id="South_Korea" data-name="South Korea">
    <polygon id="Jeju" class="cls-1" points="35.17 4.72 35.51 5.41 35.3 5.65 34.87 5.78 34.56 6.15 34.58 6.46 34.86 6.95 34.86 7.24 34.71 7.53 34.33 8.03 34.25 8.19 33.45 9.12 31.93 10.33 31.46 11.34 30.79 12.52 30.76 13 30.46 13.69 29.36 13.82 28.93 14.04 27.76 13.94 26.05 15.29 21.54 16.12 20.03 17.41 18.18 17.82 16.2 17.62 13.94 18.04 12.06 17.48 7.82 17.54 6.49 18.16 5.71 19.56 4.99 19.71 4.27 19.36 3.25 17.71 1.9 17.25 .58 15.87 .12 14.2 .92 12.02 1.67 10.67 2.14 10.2 3.69 9.28 5.01 6.97 6.23 6.66 6.8 5.44 8.89 4.72 13.44 3.41 14.58 2.43 18.93 1.97 21.9 .68 22.61 .88 26.21 .3 28.31 .12 29.69 .36 30.22 1.15 30.88 1.67 33.03 2.53 33.69 3.19 34.13 4.79 34.56 5.42 34.76 5.18 35.05 4.94 35.17 4.72"/>
  </g>
</svg>