<?xml version="1.0" encoding="UTF-8"?>
<svg id="_레이어_2" data-name="레이어 2" xmlns="http://www.w3.org/2000/svg" viewBox="0 0 74.72 47.31">
  <defs>
    <style>
      .cls-1 {
        fill: #bc5151;
        stroke: #f9f9f9;
        stroke-linecap: round;
        stroke-linejoin: round;
        stroke-width: .25px;
      }
    </style>
  </defs>
  <g id="South_Korea" data-name="South Korea">
    <path id="Jeollabuk-do" class="cls-1" d="M2.47,28.41l-.16.18-.34.27-.51-.09h-.19s.08.29.08.29l-.16.07-.27.04-.17.24-.25.14-.11.13.22.14.07.09-.47.25-.09.35.14.36.2.21.26-.06.15-.13.35-.27.55-.62.82-.71.17-.41-.09-.33-.19-.15ZM72.77,7.04l-.57.6-.57.52-.66-.35-.65-.62-1.65.74-1.43.88-.72-.21-.42-.52-2-.66-.67-.79-.76-.45-.29.39-.36.09-.42-.39-.38-.46-1.06,1.06-1.08.95-1.32.37-1.32.06-.96.24-2.58-.34-.18-.44.31-.63-.27-.55-.57-.15-1.48-.75-2.01-3.62-1.43-1.27-.75.77-.6.94-.94.19-.63.28-.65.23-2.46.48-1.25.49-1.32.25-.95-1.48.4-2.44-1.65-.33-4.62,1.46-2.51.54-2.14.23-2.01,2.48h0s2.62-.81,2.62-.81l-.08.8-.88.63-2.09.83-1.65,1.25-.94.48-.77-.22-.72.43-2.23.13-2.2.27-4.05.44.19,1.66,1.96-.31,1.33.46.41.36.14,1.31.02.95,2.13.17,2.16.14,1.1-.05,3.28-1.33.14-.11.53.2.48.41.23.4-.2.18-.61.11-.21.28-.1.41-.27.5-.4.21-.54.04-2.49-.16-.41.09-.37.3-.37.51-.12.48.41.21.79.59.97.66.85.42.41.3.6.48-.07.65-.15.62-.19.45-.48-.82-.71-.18-.99-.77-1.57-.19-1.6.16-.27.23-.51.32-.69.41-.19,1.64-1.25,1.75-1.64.91-1.34.78-.84.97-.91.9-1.05.52-.04.59-.13,1.48,2.21,1.38,6.33-1.04.68.39.41.93.58,2.05-.6-.2-.82-1.01-.8-.9-.89.23-.63.91-.65.53-1.42.08-1.66.34-1.46.52-1.02,1.47-1.21,2.83-.77,1.6-.33,1.29.22.58.62.7h0s.92-.3.92-.3l4.34-1.21,1.29.35-.26,2-.29,1.47-.06,1.48,1.11.37,1.33-.33,1.42-.51,1.5-.22.6-.44.65-.39.77-.22.73-.35.59-.51.37-.78-.09-.56-.03-.58.56-.41.41-.62-.04-.74v-.74s1.13-1.01,1.13-1.01l1.51.15.74-.88.81.06.78.33,1.37,1.12,2.09,2.84,1.38-.02.11-.78.29-.72.44-.42.32-.56,1.31-.07.9,1.37-.4,1.58.27,1.02.91,1.03-.06,1.81,1.07,1.15,1.66.25,1.28-.77,1.35-.22h.93s.78-.19.78-.19l.68.52.76.45,1.64.03,1.62-.22h1.48s1.4-.21,1.4-.21l1.3-1.4,1.62-.9,2.86,1.03,2.55,2.06.94-.96.06-1.35.3-1.46,1.86-2.23.27-1.5-.64-.43-.46-1.03.08-1.4-.49-1.29-.08-.69-.17-.61-1.14-.48.05-1.38.62-1.27.38-1.71.52-1.66.69-1.3.56-1.23.13-1.69.5-1.44,1.02-.91.96-1.01.84-1.82.44-.28.61.07,1.1-.34,2.22-1.18.43-1.16,1.63-1.76.21-3.51-1.83-3.12Z"/>
  </g>
</svg>