<?xml version="1.0" encoding="UTF-8"?>
<svg id="_레이어_2" data-name="레이어 2" xmlns="http://www.w3.org/2000/svg" viewBox="0 0 21.66 20.35">
  <defs>
    <style>
      .cls-1 {
        fill: #bc5151;
        fill-rule: evenodd;
        stroke: #f9f9f9;
        stroke-linecap: round;
        stroke-linejoin: round;
        stroke-width: .25px;
      }
    </style>
  </defs>
  <g id="South_Korea" data-name="South Korea">
    <polygon id="Ulsan" class="cls-1" points="13.44 3.94 17.59 3.19 21.13 4.06 21.17 4.05 21.24 4.13 21.54 4.66 21.37 5.85 21.27 7.27 20.97 9.4 20.52 10.3 19.78 11.29 19.11 11.66 18.81 10.69 18.55 9.43 17.97 8.49 17.35 8.33 16.98 9.4 17.59 9.54 17.95 10 18.13 10.68 18.17 11.46 17.97 12.19 17.51 12.37 17 12.41 16.65 12.77 16.71 13.16 16.77 14.18 16.95 15.23 16.53 15.91 16.16 16.58 16.53 17.1 16.83 17.41 16.77 18.15 15.85 18.45 14.98 18.97 13.74 20.2 12.69 20.16 12.68 20.22 12.5 20.07 11.23 19.62 10.25 18.65 9.95 17.13 8.93 16.33 6.63 15.07 4.7 12.86 3.54 11.98 .79 11.56 .12 10.2 1.24 7.95 1.05 5.77 2.13 4.89 3.28 4.22 3.96 4.21 4.25 3.67 3.82 2.96 3.57 2.19 5.08 1.02 6.96 .36 8.51 .12 10.02 .44 11.6 1.12 12.01 1.8 12.03 2.62 12.14 3.35 12.69 3.75 13.44 3.94"/>
  </g>
</svg>